<?xml version="1.0" encoding="utf-8"?>
<!-- Generator: Adobe Illustrator 24.2.3, SVG Export Plug-In . SVG Version: 6.00 Build 0)  -->
<svg version="1.1" id="Layer_1" xmlns="http://www.w3.org/2000/svg" xmlns:xlink="http://www.w3.org/1999/xlink" x="0px" y="0px"
	 viewBox="0 0 841.89 595.28" style="enable-background:new 0 0 841.89 595.28;" xml:space="preserve">
<style type="text/css">
	.st0{fill:#FFFFFF;}
</style>
<g>
	<path class="st0" d="M322.35,299.97c-0.76-0.2-1.52-0.48-2.29-0.57c-1.1-0.12-2.23-0.14-3.34-0.12c-3.37,0.06-6.66-0.45-9.95-1.07
		c-2.59-0.48-5.22-0.74-7.84-1.09c-2.67-0.36-5.36-0.6-8.02-1.08c-3.11-0.56-6.21-1.21-9.27-2.01c-2.94-0.77-5.88-1.62-8.72-2.72
		c-3.41-1.32-6.47-3.35-9-5.98c-1.24-1.28-2.12-2.92-3.08-4.45c-2.69-4.28-3.65-8.97-3.12-13.98c0.2-1.86,0.37-3.73,0.57-5.59
		c0.12-1.1-0.58-2.5-1.57-2.89c-0.34-0.13-0.8-0.07-1.17,0.04c-1.35,0.41-2.67,0.9-4.02,1.3c-0.55,0.16-1.15,0.3-1.71,0.26
		c-2.94-0.19-4.4-0.96-5.38-4.54c-1.17-4.24-0.26-8.25,1.35-12.18c0.58-1.41,1.23-2.79,1.8-4.2c1.29-3.18,3.65-5.56,5.97-7.95
		c1.96-2.01,4.06-3.89,6.07-5.85c1.44-1.41,2.69-3.01,3.06-5.02c0.19-1.05,0.11-2.25-0.21-3.26c-2.06-6.51-2.2-13.02-0.25-19.57
		c0.71-2.39,0.95-4.81,0.58-7.31c-0.26-1.8-0.38-3.62-0.39-5.44c-0.03-3.3-1.26-6.04-3.55-8.35c-1.65-1.67-3.33-3.31-4.97-4.99
		c-2.01-2.05-3.25-4.46-3.14-7.39c0.04-0.97,0.28-1.99,0.66-2.88c1.2-2.76,3.23-4.78,5.72-6.47c2.17-1.48,4.24-3.14,6.2-4.9
		c1.74-1.57,1.74-2.52,0.41-4.44c-0.6-0.86-1.3-1.66-2.03-2.42c-2.3-2.42-3.62-5.43-5.05-8.36c-2.08-4.25-2.54-8.87-2.81-13.51
		c-0.17-2.93-0.2-5.86-0.31-8.8c-0.2-5.01,0.59-9.95,1.2-14.89c0.13-1.05,0.21-2.1,0.31-3.15c0.47-4.76,1.59-9.34,3.42-13.77
		c1.1-2.65,1.83-5.45,2.93-8.1c1.21-2.91,2.49-5.82,4.06-8.55c2.22-3.83,4.06-7.88,6.77-11.45c2.75-3.63,5.1-7.57,7.9-11.15
		c2.05-2.62,4.49-4.93,6.86-7.29c1.95-1.94,4.03-3.76,6.06-5.62c0.47-0.44,0.96-0.87,1.48-1.25c1.7-1.24,3.34-2.58,5.14-3.65
		c2.08-1.23,4.01-2.62,5.87-4.14c0.18-0.15,0.41-0.24,0.63-0.31c2.56-0.77,4.7-2.35,6.98-3.66c0.35-0.2,0.73-0.37,1.11-0.52
		c1.46-0.6,2.99-1.06,4.37-1.81c3.59-1.95,7.49-3.02,11.34-4.26c5.87-1.89,11.82-3.44,17.88-4.55c3.57-0.66,7.21-0.89,10.81-1.42
		c3.3-0.49,6.58-1.2,9.88-1.67c6.52-0.93,13.1-0.96,19.67-0.97c11.8-0.02,23.59-0.05,35.39,0.07c8.21,0.08,16.43,0.29,24.64,0.64
		c3.5,0.15,6.98,0.83,10.47,1.25c4.19,0.51,8.4,0.9,12.57,1.53c5.21,0.79,10.42,1.61,15.56,2.89c5.19,1.29,10.32,2.79,15.27,4.73
		c3.68,1.45,7.37,2.93,10.85,4.91c5.52,3.15,10.66,6.81,15.52,10.87c3.61,3.01,6.86,6.39,9.86,10.02c1.46,1.76,3.01,3.45,4.48,5.2
		c0.71,0.85,1.27,1.83,2,2.67c4.89,5.71,8.3,12.33,11.47,19.07c1.15,2.44,2.06,4.98,3.09,7.47c0.54,1.3,1.26,2.54,1.62,3.88
		c1.13,4.19,2.15,8.4,3.18,12.62c1.14,4.7,1.55,9.49,1.6,14.3c0.06,6.16,0.02,12.32-0.02,18.49c-0.01,1.7-0.07,3.41-0.24,5.1
		c-0.22,2.1-0.68,4.12-1.56,6.1c-1.09,2.46-1.9,5.05-2.69,7.63c-0.81,2.65,0.31,4.96,1.6,7.17c1.42,2.42,2.82,4.87,4.43,7.17
		c2.44,3.48,3.68,7.44,4.91,11.42c0.7,2.27,0.44,4.48-0.61,6.49c-0.57,1.08-1.61,2.02-2.65,2.72c-1.54,1.05-3.24,1.89-4.93,2.7
		c-1.31,0.63-2.03,1.55-1.99,3.01c0.02,0.76-0.03,1.54,0.11,2.28c0.8,4.34,0.03,8.52-1.15,12.68c-0.1,0.34-0.18,0.68-0.3,1.01
		c-0.68,1.82-0.2,3.37,0.85,4.96c1.15,1.75,2.24,3.55,2.62,5.71c0.55,3.16,0.06,6.03-1.75,8.71c-0.88,1.31-1.59,2.74-2.27,4.16
		c-1.05,2.2-1.01,4.54-0.79,6.91c0.22,2.33,0.52,4.67,0.5,7.01c-0.02,3.18,1.37,5.53,3.57,7.69c1.61,1.59,2.94,3.49,4.28,5.33
		c1.9,2.62,3.24,5.58,4.46,8.55c1.23,2.99,1.93,6.16,2.1,9.4c0.12,2.27-0.58,3.15-2.84,3.36c-1.68,0.16-3.38,0.09-5.08,0.14
		c-1.74,0.05-2.08,0.36-2.11,2.08c-0.04,1.87,0.04,3.75,0,5.62c-0.08,3.59-1.45,6.65-3.62,9.51c-2.57,3.39-5.73,5.94-9.54,7.79
		c-2.15,1.04-4.15,2.4-6.33,3.35c-2.41,1.05-4.96,1.79-7.45,2.67c-0.17,0.06-0.34,0.09-0.51,0.15c-0.58,0.2-1.42,0.22-1.31,1.12
		c0.11,0.87,0.87,1.02,1.6,1.06c1.81,0.11,3.63,0.29,5.44,0.28c6.81-0.06,13.61-0.26,20.42-0.29c14.14-0.05,28.29-0.02,42.43-0.03
		c25.18-0.01,50.36-0.03,75.54-0.03c10.97,0,21.95,0.01,32.92,0.02c5.45,0,10.91-0.08,16.36,0.07c1.84,0.05,3.69,0.59,5.49,1.05
		c1.54,0.4,2.57,1.48,2.71,3.11c0.11,1.33,0.19,2.71-0.05,4.01c-0.38,2.02-1.96,3.05-3.84,3.41c-1.83,0.35-3.73,0.52-5.59,0.52
		c-14.5,0.01-28.99-0.07-43.49-0.07c-20.95,0.01-41.9,0.09-62.86,0.09c-14.5,0-28.99-0.11-43.49-0.12
		c-33.8-0.01-67.61,0.01-101.41,0.02c-20.6,0.01-41.2,0.01-61.79,0.02c-15.32,0.01-30.65,0.04-45.97,0.03
		c-31.57-0.02-63.15-0.06-94.72-0.07c-18.9-0.01-37.79,0.03-56.69,0.03c-32.63,0-65.26-0.01-97.89-0.02
		c-5.99,0-11.97,0.11-17.96,0.02c-2.03-0.03-4.1-0.32-6.07-0.81c-2.15-0.54-3.18-2.24-3.45-4.41c-0.29-2.3,0.34-4.17,2.37-5.45
		c1.6-1.01,3.43-1.18,5.24-1.3c1.81-0.11,3.64-0.1,5.46-0.09c15.61,0.02,31.22,0.08,46.83,0.07c35.45-0.01,70.9-0.07,106.35-0.08
		c6.28,0,12.56,0.11,18.84,0.14c4.04,0.02,8.09,0.01,12.13,0c9.5-0.02,19.01-0.05,28.51-0.1c0.87,0,1.75-0.12,2.61-0.28
		c0.34-0.06,0.63-0.39,0.94-0.59C322.38,300.32,322.36,300.14,322.35,299.97z M266.69,131.14c-1.33,2.35,0.28,4.01,2.12,5.29
		c0.73,0.51,1.42,0.96,1.95,1.68c0.87,1.17,1.72,2.36,2.7,3.44c0.95,1.04,1.01,0.99,2.17,0.2c1.43-0.97,2.39-0.66,2.91,0.99
		c0.3,0.95,0.46,1.94,0.75,2.89c0.44,1.43,1.34,2.55,2.83,2.84c1.59,0.31,2.43-0.78,3.1-2.07c0.87-1.66,1.89-3.24,2.74-4.91
		c0.79-1.55,2.13-2.82,2.35-4.68c0.04-0.3,0.49-0.67,0.82-0.81c2.04-0.83,3.62,0.26,3.76,2.46c0.06,0.91-0.31,1.6-0.82,2.25
		c-0.92,1.17-2.19,2.11-2.3,3.78c-0.01,0.2-0.25,0.38-0.39,0.57c-0.7,0.94-1.4,1.88-2.1,2.81c-0.92,1.23-0.61,3.73,0.58,4.66
		c1.5,1.18,4.16,0.57,4.96-1.16c0.24-0.53,0.48-1.09,0.58-1.66c0.39-2.21,1.79-3.94,2.84-5.82c0.52-0.94,1.55-1.87,2.9-1.57
		c1.42,0.31,2.06,1.14,2.07,2.65c0.01,0.8-0.09,1.65-0.38,2.39c-0.53,1.36-1.29,2.62-1.85,3.96c-0.46,1.11-0.1,1.73,1.08,1.81
		c0.6,0.04,1.33-0.1,1.79-0.44c0.69-0.5,1.31-1.19,1.77-1.91c0.8-1.27,1.99-1.99,3.3-2.51c2.17-0.86,4.37-1.63,6.57-2.42
		c0.49-0.18,1.01-0.35,1.52-0.38c1.9-0.11,2.94,1.47,2.09,3.17c-0.52,1.02-1.25,1.84-2.43,2.15c-0.68,0.18-1.37,0.34-2.02,0.6
		c-0.94,0.39-1.77,2-1.58,2.91c0.17,0.79,0.85,1.15,2.29,1.22c3.45,0.17,6.9,0.48,10.35,0.47c8.45-0.02,16.9-0.38,25.34-0.23
		c5.94,0.11,11.85,0.01,17.74-0.69c4.69-0.56,9.36-0.51,14.05-0.45c3.22,0.04,6.45-0.07,9.67-0.22c4.98-0.23,9.95-0.7,14.93-0.78
		c5.92-0.1,11.85,0.06,17.78,0.18c5.1,0.11,10.2,0.3,15.3,0.51c12.6,0.52,25.2,1.11,37.81,1.59c3.92,0.15,7.85,0.13,11.78,0.01
		c2.17-0.06,4.1-0.81,5.1-3.05c0.45-1,1.46-1.12,2.41-1.1c0.63,0.01,1.33,0.11,1.88,0.4c1.74,0.93,3.59,0.92,5.48,0.99
		c1.69,0.06,3.45,0.09,5.04,0.57c3.61,1.08,7.17,0.94,10.79,0.27c1.21-0.23,2.44-0.34,3.64-0.59c1.14-0.24,2.31-0.47,3.36-0.95
		c1.1-0.5,1.21-1.39,0.38-2.29c-0.88-0.95-1.98-1.39-3.33-1.16c-1.68,0.29-3.39,0.49-5.02-0.21c-1.24-0.53-2.39-0.72-3.71-0.11
		c-1.09,0.51-2.34,0.49-3.32-0.38c-1.18-1.04-2.56-1.61-4.02-2.09c-0.88-0.29-1.69-0.79-2.53-1.21c-0.98-0.49-1.58-1.25-1.47-2.37
		c0.08-0.88,1.48-2.04,2.5-2.2c1.34-0.2,2.56,0.08,3.65,0.91c1.39,1.07,2.9,2.02,4.16,3.23c1.38,1.34,2.73,1.68,4.4,0.74
		c0.15-0.09,0.37-0.07,0.49-0.18c1.15-1.05,2.47-0.69,3.66-0.26c2.28,0.83,4.49,0.64,6.72-0.04c1.65-0.5,1.69-0.51,1.37-2.15
		c-0.38-2-0.5-3.95,0.49-5.83c0.38-0.72,0.68-1.47,0.99-2.22c0.21-0.51,0.55-0.76,1.09-0.63c1.1,0.27,2.17,0.91,2.23,1.99
		c0.13,2.25,0.21,4.58-1.62,6.4c-1.58,1.57-2.66,3.29-1.38,5.59c0.11,0.2,0.12,0.45,0.18,0.68c0.43,1.55,0.7,1.72,2.21,1.47
		c0.46-0.08,0.92-0.23,1.39-0.23c0.99,0,1.52-0.55,1.8-1.39c0.16-0.49,0.23-1.02,0.32-1.53c0.24-1.38,0.37-2.79,0.72-4.15
		c0.45-1.75,1.44-2.02,2.79-0.87c0.67,0.57,1.31,1.18,2,1.72c1.63,1.3,2.65,1.04,3.5-0.89c0.14-0.32,0.29-0.65,0.34-1
		c0.27-1.8,1.11-3.25,2.3-4.62c1.3-1.5,2.46-3.14,3.59-4.78c0.62-0.9,1.15-1.9,1.55-2.91c0.37-0.93-0.01-1.9-0.73-2.34
		c-0.79-0.48-1.47-0.1-2.11,0.35c-0.62,0.44-1.14,1.04-1.81,1.38c-1.29,0.66-2.4,0.09-2.55-1.34c-0.26-2.35-1.34-3.78-3.8-4.06
		c-1.06-0.12-1.33-0.78-0.69-1.6c1.23-1.56,2.49-3.11,3.85-4.57c0.98-1.05,2.37-1.05,3.48-0.13c0.45,0.37,0.77,0.88,1.18,1.29
		c0.49,0.5,0.95,1.07,1.53,1.43c1.55,0.96,2.9,0.34,3.25-1.43c0.1-0.52,0.18-1.05,0.17-1.57c-0.03-2.09-0.64-2.79-2.7-3.25
		c-0.68-0.15-1.38-0.3-2-0.59c-1.29-0.61-1.45-1.55-0.53-2.67c0.71-0.87,1.65-1.23,2.74-1.42c1.87-0.32,2.33-0.74,2.45-2.63
		c0.12-1.87,0.14-3.76-0.02-5.62c-0.58-6.61-1.85-13.1-3.44-19.54c-1.19-4.82-3.28-9.26-5.13-13.8c-0.55-1.35-1.24-2.66-1.97-3.93
		c-1.78-3.09-3.66-6.12-5.45-9.21c-1.85-3.2-3.91-6.27-6.34-9.04c-3.09-3.52-6.26-6.98-9.56-10.32c-2.05-2.08-4.28-4.02-6.63-5.75
		c-2.35-1.73-4.99-3.05-7.43-4.67c-3.49-2.33-7.41-3.78-11.25-5.34c-4.06-1.64-8.31-2.83-12.52-4.08c-2.52-0.75-5.12-1.28-7.69-1.82
		c-6.94-1.46-13.88-2.89-20.99-3.44c-6.14-0.48-12.28-1-18.44-1.01c-8.75-0.01-17.48-0.31-26.2-1c-3.56-0.28-7.15-0.34-10.73-0.3
		c-4.57,0.06-9.15,0.27-13.72,0.51c-5.39,0.29-10.77,0.65-16.16,1.04c-2.34,0.17-4.66,0.56-6.99,0.77
		c-4.09,0.38-8.19,0.6-12.27,1.08c-2.2,0.26-4.33,1-6.53,1.34c-5,0.76-9.86,2-14.66,3.57c-1.28,0.42-2.64,0.55-3.92,0.97
		c-2.45,0.81-4.89,1.65-7.27,2.62c-2.76,1.12-5.52,2.27-8.17,3.61c-2.44,1.24-4.74,2.73-7.08,4.16c-1.79,1.09-3.66,2.1-5.29,3.4
		c-1.87,1.5-4.12,2.43-5.76,4.26c-1.79,2-3.8,3.81-5.58,5.81c-1.48,1.66-2.67,3.57-4.17,5.21c-3.51,3.82-6.23,8.19-9.09,12.47
		c-0.78,1.17-1.55,2.34-2.22,3.58c-1.08,2.01-2.06,4.07-3.11,6.1c-1.54,2.97-2.99,5.96-3.81,9.23c-0.11,0.45-0.32,0.88-0.45,1.33
		c-1.04,3.48-2.07,6.96-3.1,10.44c-0.13,0.45-0.16,0.94-0.34,1.36c-1.71,4.06-2.24,8.38-2.7,12.69c-0.15,1.38,0,2.81,0.19,4.19
		c0.17,1.25,0.79,2.29,1.95,2.99c0.88,0.53,1.58,1.33,1.54,2.42c-0.08,2.74,0.45,5.52-0.58,8.19c-0.31,0.81-0.61,1.63-1.01,2.4
		c-1.11,2.15-0.58,4.15,1.48,4.99c1.18-1.64,2.73-2.52,4.92-2.3c2.75,0.28,5.03,2.14,4.33,5.46c-0.16,0.78-0.52,1.3-1.28,1.51
		c-0.92,0.26-1.78,0.28-2.71-0.19C269.39,132.09,268.05,131.68,266.69,131.14z M272.46,252.5c0-0.04-0.01-0.08-0.01-0.12
		c-1.22,0.11-2.45,0.15-3.66,0.35c-0.94,0.16-1.54,0.84-1.78,1.76c-0.25,0.99,0.26,1.72,0.99,2.28c0.97,0.75,1.94,1.53,2.99,2.15
		c1.42,0.84,2.37,2.08,3.22,3.42c1.02,1.6,2.1,3.07,3.97,3.81c0.97,0.38,1.89,0.94,2.77,1.53c0.52,0.34,1.04,0.82,1.31,1.37
		c0.75,1.55,1.15,3.17,0.57,4.93c-0.4,1.22-0.66,2.5-0.82,3.77c-0.15,1.2,0.4,1.93,1.45,2.32c2.31,0.85,3.79-0.04,4.1-2.47
		c0.03-0.23,0.03-0.47,0.06-0.7c0.18-1.51,1.17-2.4,2.41-3.03c0.93-0.47,1.87-0.09,2.68,0.39c0.78,0.47,0.44,1.25,0.29,1.92
		c-0.18,0.8-0.43,1.58-0.6,2.39c-0.37,1.77-0.12,3.37,1.3,4.67c0.95,0.87,1.88,1.76,2.75,2.7c1.43,1.56,2.22,1.76,4.14,0.71
		c1.71-0.93,3.43-1.35,5.4-0.87c1.78,0.43,3.61,0.36,5.35-0.3c2.33-0.88,3.95,0.16,5.34,1.89c0.33,0.41,0.58,0.89,0.93,1.28
		c0.73,0.81,1.31,0.87,2.12,0.16c0.61-0.54,1.16-1.17,1.66-1.81c1.27-1.61,1.43-1.61,3.11-0.5c1.41,0.93,2.89,1.76,4.39,2.56
		c0.87,0.46,1.73,0.34,2.69-0.06c1.33-0.56,2.77-0.9,4.19-1.21c0.91-0.2,1.74,0.19,2.38,0.88c0.36,0.39,0.63,0.87,1.03,1.2
		c0.8,0.67,1.65,1.46,2.8,1.14c1.07-0.31,0.89-1.36,1.03-2.22c0.36-2.21,2.24-3.26,4.31-2.44c0.65,0.26,1.27,0.77,1.93,0.82
		c3.04,0.22,4.97,1.84,6.52,4.37c1.05,1.71,2.32,1.62,3.69,0.09c0.35-0.39,0.59-0.87,0.87-1.32c0.34-0.55,0.63-1.13,1.01-1.65
		c0.79-1.07,1.48-1.15,2.49-0.27c0.44,0.38,0.84,0.83,1.14,1.33c1.37,2.28,3.5,3.24,6.02,3.39c3.4,0.2,6.8,0.34,10.19,0.44
		c6.27,0.19,12.55,0.31,18.82,0.52c4.69,0.15,9.38,0.54,14.07,0.57c20.42,0.09,40.84,0.11,61.27,0.11c4.36,0,7.37-2.33,9.43-5.99
		c0.79-1.4,1.68-2.68,2.95-3.66c0.74-0.58,1.55-0.8,2.46-0.39c1.49,0.67,2.01,2.74,0.91,4c-0.49,0.56-1.18,0.94-1.8,1.37
		c-0.91,0.63-1.25,2.07-0.72,3.13c0.58,1.14,1.63,1.63,2.77,1.28c1.06-0.33,1.71-1.12,2.4-1.95c2.15-2.6,4.02-2.9,6.32-1.09
		c1.04,0.82,2.18,1.1,3.39,1.29c1.53,0.25,2.72-0.59,2.86-2.11c0.12-1.27,0.12-2.53-0.49-3.78c-0.42-0.86-0.48-1.91-0.66-2.88
		c-0.14-0.74,0.26-1.23,0.87-1.57c1.96-1.09,4.2-0.02,4.56,2.19c0.06,0.35,0.03,0.7,0.07,1.05c0.15,1.28,0.25,2.57,0.51,3.83
		c0.23,1.15,0.91,2.08,2.13,2.33c2.75,0.57,4.71-1.49,4.08-4.22c-0.33-1.43-0.71-2.85-0.98-4.28c-0.13-0.68-0.25-1.46-0.04-2.08
		c0.2-0.58,0.76-1.19,1.32-1.47c0.7-0.35,1.53-0.18,2.06,0.51c0.39,0.51,0.7,1.08,1,1.65c1.22,2.27,2.4,4.55,3.64,6.81
		c0.9,1.63,1.79,1.65,2.81,0.17c0.83-1.21,1.9-2.05,3.49-1.96c0.58,0.03,1.18-0.13,1.75-0.07c1.03,0.1,1.68-0.35,2.14-1.2
		c0.28-0.51,0.62-1.01,0.79-1.57c0.29-0.94,0.7-2.05-0.26-2.77c-0.98-0.74-1.91-0.09-2.67,0.6c-0.6,0.55-1.26,0.82-2.07,0.75
		c-1.31-0.11-2.36-0.8-3.16-1.73c-1.07-1.24-0.69-2.41,0.84-3.04c1.99-0.83,3.84-0.87,5.51,0.78c0.75,0.74,1.99,0.77,2.75,0.14
		c1.21-1.01,2.38-2.07,3.53-3.14c1.29-1.21,2.63-2.31,4.31-2.94c1.25-0.47,3.37,0,3.86,0.91c0.41,0.76-0.1,2-1.27,3.03
		c-0.18,0.16-0.35,0.31-0.55,0.44c-1.52,0.98-2.98,2.1-4.59,2.88c-1.34,0.65-1.81,1.67-1.79,2.94c0.01,1.22,0.24,2.44,0.5,3.64
		c0.41,1.87,0.86,2.19,2.79,2.19c0.29,0,0.59,0,0.88-0.02c1.74-0.12,2.54-0.85,2.73-2.61c0.11-1.05,0.05-2.11,0.15-3.16
		c0.16-1.64,0.97-2.85,2.52-3.51c0.27-0.11,0.55-0.22,0.81-0.35c1.56-0.79,1.85-1.46,1.35-3.12c-0.24-0.79-0.51-1.56-0.69-2.36
		c-0.25-1.12-0.83-1.96-1.93-2.32c-1.55-0.5-2.19-1.68-2.46-3.14c-0.14-0.75-0.12-1.53-0.31-2.26c-0.14-0.53-0.39-1.21-0.8-1.44
		c-0.85-0.47-1.82-0.86-2.77-0.98c-2.15-0.26-4.32-0.33-6.49-0.49c-4.09-0.31-8.18-0.67-12.28-0.93c-4.33-0.28-8.66-0.61-13-0.69
		c-6.75-0.12-13.5-0.04-20.24-0.05c-14.96-0.02-29.93-0.04-44.89-0.06c-12.91-0.02-25.82-0.04-38.73-0.05
		c-9.45-0.01-18.9-0.15-28.32-0.92c-4.44-0.37-8.85-1.18-13.29-1.48c-8.6-0.56-17.23-0.83-25.84-1.34
		c-7.08-0.42-14.18-0.82-21.23-1.57c-6.59-0.7-13.18-1.41-19.81-1.71c-5.27-0.24-10.54-0.62-15.81-0.96
		C279.24,253.02,275.85,252.75,272.46,252.5z M548.73,168.71c0,0.09,0.01,0.19,0.01,0.28c3.29,0,6.57,0.02,9.86-0.01
		c0.87-0.01,1.76-0.11,2.61-0.31c1.42-0.35,2.6-1.81,2.41-3.07c-0.4-2.62-1.08-5.17-2.33-7.53c-0.93-1.75-1.89-3.49-2.88-5.21
		c-0.86-1.49-2.17-2.74-3.84-2.73c-1.57,0.01-3.31,0.51-4.65,1.33c-3.29,1.99-6.36,4.33-10,5.76c-4.33,1.7-8.65,3.3-13.35,3.64
		c-2.22,0.16-4.42,0.54-6.61,0.9c-1.73,0.28-3.43,0.88-5.17,1.01c-5.03,0.39-10.07,0.55-15.1,0.92c-7.27,0.53-14.55,0.4-21.82,0.25
		c-10.09-0.21-20.18-0.56-30.26-0.9c-7.03-0.24-14.07-0.51-21.1-0.9c-8.16-0.45-16.31-0.32-24.46-0.03
		c-7.21,0.25-14.41,0.85-21.61,1.16c-7.33,0.32-14.66,0.62-21.99,0.68c-11.97,0.09-23.94,0.4-35.89-0.54
		c-3.22-0.25-6.45-0.27-9.66-0.61c-5.66-0.6-11.29-1.4-16.94-2.06c-3.22-0.37-6.3-1.26-9.34-2.34c-3.2-1.13-6.36-2.39-9.56-3.54
		c-3.14-1.13-6.26-0.93-9.22,0.56c-3.16,1.59-5.61,4-7.58,6.91c-0.87,1.28-1.07,2.66-0.17,3.95c0.97,1.38,2.03,2.72,3.22,3.91
		c2.1,2.12,4.34,4.1,6.51,6.16c1.3,1.24,2.49,2.61,3.89,3.73c1.21,0.97,2.56,2.09,4.01,2.39c3.25,0.68,6.52,0.33,9.63-1.04
		c2.25-0.99,4.54-1.89,6.84-2.76c0.98-0.37,2.07-0.47,3.04-0.86c3.99-1.6,8.01-3.02,12.39-3c0.17,0,0.35-0.07,0.52-0.08
		c2.96-0.14,5.84,0.15,8.63,1.25c2.34,0.93,4.7,1.84,7.09,2.62c4.97,1.62,10.1,2.01,15.29,1.87c2.58-0.07,5.16-0.16,7.74-0.24
		c5.08-0.15,10.04-1.07,14.84-2.66c3.33-1.1,6.55-2.52,9.83-3.79c3.44-1.33,6.84-2.79,10.53-3.34c2.8-0.42,5.58-0.72,8.37,0.06
		c3.18,0.9,6.15,2.25,8.96,3.98c1.44,0.89,2.9,1.79,4.44,2.47c2.25,0.98,4.5,1.94,6.88,2.64c5.17,1.53,10.45,2.25,15.79,2.38
		c6.68,0.16,12.51-2.71,18.27-5.67c0.15-0.08,0.29-0.2,0.43-0.3c2.84-2.25,6.21-3.19,9.67-3.87c3.09-0.6,6.19-0.28,9.3-0.12
		c5.11,0.27,9.93,1.58,14.6,3.58c2.53,1.08,5,2.28,7.57,3.24c3.18,1.19,6.38,2.38,9.66,3.21c6.1,1.55,12.31,1.62,18.52,0.71
		c1.93-0.28,3.27-1.49,4.37-3.02c0.85-1.19,1.58-2.49,2.56-3.57c1.53-1.68,3.01-3.6,4.92-4.7c2.02-1.17,4.48-1.89,6.82-2.13
		C539.69,168.88,544.22,168.9,548.73,168.71z M512.23,201.46c0.01,0.06,0.01,0.11,0.02,0.17c3.03-0.32,6.06-0.64,9.09-0.96
		c3.38-0.36,6.77-0.7,10.14-1.09c2.74-0.32,5.46-0.75,8.2-1.07c3.04-0.35,6.05-0.75,8.46-2.93c0.13-0.11,0.31-0.16,0.46-0.25
		c1.14-0.71,2.32-1.36,3.39-2.17c0.68-0.52,1.42-1.18,1.72-1.94c1.27-3.22,1.89-6.52,0.7-9.96c-0.82-2.36-2.25-4.02-4.85-4.18
		c-3.8-0.23-7.61-0.27-11.42-0.48c-3.71-0.21-6.42,1.43-8.5,4.35c-1.67,2.34-3.3,4.72-5.66,6.45c-0.84,0.61-1.7,1.31-2.67,1.6
		c-2.58,0.78-5.19,1.51-7.84,1.96c-1.92,0.32-2.95,1.24-3.32,3.05c-0.25,1.22-0.99,2.1-1.9,2.89c-0.75,0.65-1.55,0.68-2.45,0.28
		c-1.71-0.77-1.82-2.31-1.91-3.84c-0.12-1.92-0.62-2.66-2.42-3.14c-1.81-0.49-3.63-0.96-5.48-1.3c-3.81-0.71-7.54-1.68-11.1-3.26
		c-2.19-0.97-4.41-1.89-6.66-2.71c-3.53-1.28-7.13-2.3-10.88-2.82c-6.11-0.84-12-0.85-17.32,2.99c-2.56,1.85-5.43,3.17-8.37,4.38
		c-4.08,1.68-8.33,2.56-12.67,2.57c-3.44,0.01-6.88-0.59-10.31-1.04c-6.35-0.84-12.3-2.88-17.83-6.16
		c-2.16-1.28-4.45-2.37-6.69-3.51c-0.46-0.24-0.99-0.4-1.5-0.48c-2.79-0.47-5.6-0.58-8.41-0.19c-4.06,0.56-7.75,2.15-11.41,3.88
		c-1.53,0.73-3.13,1.34-4.75,1.86c-6.58,2.11-13.43,2.73-20.23,3.6c-1.97,0.25-4,0.38-5.97,0.23c-4.73-0.36-9.46-0.84-14.17-1.44
		c-1.59-0.2-3.13-0.88-4.68-1.39c-3.44-1.14-6.75-2.76-10.52-2.52c-1.93,0.12-3.87,0.21-5.8,0.21c-2.45,0-4.79,0.51-7.02,1.43
		c-4.93,2.04-9.82,4.17-15.02,5.46c-1.06,0.26-2.2,0.38-3.29,0.31c-2.16-0.14-4.34-0.33-6.46-0.74c-1.51-0.29-2.48,1.33-1.76,2.48
		c0.46,0.74,0.96,1.52,1.63,2.04c1.94,1.51,4.06,2.71,6.48,3.37c3.08,0.85,6.23,1.06,9.37,1.46c2.65,0.33,3.38-0.11,4.34-2.65
		c0.1-0.27,0.15-0.59,0.31-0.82c0.36-0.51,0.72-1.05,1.18-1.46c1.81-1.6,3.97-1.5,6.16-1.2c1.33,0.18,2.66,0.37,4,0.53
		c1.1,0.14,2.23,0.18,3.32,0.4c1.85,0.37,2.57,1.44,2.32,3.29c-0.08,0.58-0.24,1.15-0.3,1.73c-0.15,1.47,0.19,2.12,1.61,2.5
		c1.92,0.51,3.87,1.11,5.84,1.21c8.08,0.43,16.18,0.73,24.27,1c5.03,0.17,10.07,0.17,15.11,0.32c2.34,0.07,4.67,0.34,7.01,0.45
		c5.39,0.23,10.78,0.48,16.17,0.61c6.33,0.14,12.67,0.17,19,0.22c8.45,0.07,16.9,0.24,25.35,0.11c6.39-0.1,12.78-0.46,19.15-0.95
		c5.33-0.41,10.63-0.9,15.99-0.61c1.99,0.11,3.99,0.18,5.98,0.09c8.67-0.39,17.34-0.84,26.01-1.29c3.92-0.2,7.84-0.47,11.76-0.71
		c0.93-0.06,1.86-0.16,2.8-0.18C509.42,201.44,510.82,201.46,512.23,201.46z M420.66,243.72c6.39,0,12.79,0.09,19.18-0.03
		c5.63-0.1,11.26-0.37,16.88-0.68c8.2-0.46,16.39-1.02,24.59-1.54c2.17-0.14,4.33-0.27,6.5-0.43c5.73-0.42,11.46-0.87,17.19-1.28
		c3.33-0.24,6.67-0.4,10.01-0.63c1.25-0.08,2.41-0.4,3.36-1.32c1.89-1.82,3.83-3.59,5.72-5.42c0.37-0.36,0.63-0.85,0.85-1.32
		c0.98-2.05,0.26-3.84-1.93-4.39c-1.1-0.28-2.32-0.22-3.47-0.14c-3.1,0.23-6.18,0.68-9.28,0.84c-7.2,0.36-14.42,0.53-21.62,0.91
		c-7.97,0.43-15.94,0.7-23.92,0.53c-7.74-0.17-15.49-0.28-23.23-0.34c-6.99-0.06-13.95,0.4-20.91,1.05
		c-3.44,0.32-6.9,0.67-10.34,0.58c-4.8-0.13-9.6-0.58-14.39-1.05c-3.73-0.37-7.47-0.58-11.14-1.53c-2.85-0.74-5.8-0.75-8.74-0.32
		c-2.95,0.43-5.91,0.98-8.88,1.12c-10.86,0.5-21.7-0.26-32.52-1.11c-3.27-0.26-6.5-0.94-9.76-1.28c-4.9-0.52-9.81-0.9-14.71-1.38
		c-3.26-0.31-6.52-0.71-9.79-1.01c-1.57-0.15-3.16-0.34-4.71-0.2c-1.25,0.11-2.31-0.14-3.35-0.71c-1.73-0.95-3.56-1.43-5.54-1.45
		c-2.23-0.03-4.45-0.22-6.68-0.29c-2.11-0.07-4.22-0.11-6.33-0.11c-1.52,0-2.79,0.62-3.5,1.97c-0.67,1.27-0.77,2.69-0.51,4.11
		c0.16,0.9,0.81,1.23,1.65,1.3c3.04,0.24,6.08,0.46,9.12,0.73c1.87,0.17,3.72,0.42,5.59,0.62c2.24,0.24,4.5,0.49,6.04-1.73
		c0.07-0.09,0.17-0.16,0.26-0.23c1.54-1.16,3-0.72,3.39,1.14c0.21,1,0.13,2.08,0.07,3.11c-0.03,0.57-0.28,1.14-0.47,1.69
		c-0.49,1.39,0.64,2.05,1.76,1.59c0.74-0.31,1.35-0.92,2.08-1.29c0.65-0.33,1.36-0.68,2.07-0.74c1.25-0.11,2.39,0.28,3.44,1.07
		c2.11,1.58,4.48,2.41,7.17,2.58c5.44,0.35,10.92,0.46,16.29,1.52c5.08,1.01,10.23,1.36,15.39,1.62c5.16,0.26,10.32,0.38,15.47,0.76
		c8.54,0.62,17.07,1.38,25.6,2.11C396.6,243.73,408.64,243.5,420.66,243.72z M532.09,218.26c0-0.09,0-0.18,0-0.27
		c3.69-0.13,7.39-0.29,11.08-0.4c2.82-0.08,5.59-0.2,8.24-1.42c0.95-0.44,1.75-0.88,2.34-1.71c0.34-0.48,0.65-0.98,1.02-1.43
		c1.37-1.71,1.41-3.67,1.1-5.69c-0.06-0.38-0.28-0.8-0.56-1.06c-1.02-1-2.15-1.81-3.71-1.69c-2.51,0.18-5.05,0.15-7.54,0.52
		c-3.36,0.51-6.68,1.23-9.99,2.01c-3.78,0.89-7.57,1.58-11.45,1.66c-5.92,0.11-11.85,0.14-17.77,0.31
		c-3.98,0.12-7.97,0.36-11.94,0.65c-2.57,0.19-5.11,0.64-7.68,0.87c-3.51,0.31-7.02,0.48-10.53,0.8c-2.68,0.24-5.35,0.81-8.03,0.89
		c-7.04,0.2-14.08,0.29-21.12,0.28c-9.09-0.01-18.19-0.1-27.28-0.27c-7.33-0.13-14.65-0.43-21.98-0.64
		c-2.04-0.06-4.1,0.03-6.13-0.12c-2.05-0.15-3.13,1.05-4.03,2.56c-0.79,1.32-0.74,3.96,0.12,4.86c0.98,1.02,2.1,1.9,3.59,2.05
		c1.93,0.19,3.85,0.4,5.78,0.53c2.28,0.15,4.58,0.14,6.85,0.33c4.74,0.41,9.48,0.67,14.23,0.27c1.4-0.12,2.8-0.32,4.2-0.4
		c5.39-0.3,10.78-0.5,16.16-0.87c7.21-0.49,14.4-0.64,21.62-0.01c10.85,0.95,21.68,0.71,32.45-1.15c0.92-0.16,1.86-0.29,2.79-0.33
		c5.21-0.24,10.43-0.47,15.65-0.65c5.28-0.19,10.55-0.34,15.83-0.46C527.63,218.22,529.86,218.26,532.09,218.26z M357.47,221.42
		c0,0.06,0,0.12,0.01,0.19c4.39-0.16,8.78-0.32,13.18-0.47c2.21-0.08,4.08-1.12,5.82-2.3c1.5-1.01,1.78-2.7,1.65-4.4
		c-0.13-1.67-1.51-2.11-2.77-2.59c-0.48-0.18-1.04-0.19-1.56-0.17c-2.17,0.07-4.33,0.19-6.5,0.26c-2.23,0.07-4.46,0.21-6.68,0.12
		c-4.34-0.16-8.67-0.59-13-0.66c-6.52-0.1-13.02-0.27-19.5-1.04c-4.6-0.54-9.21-1-13.86-0.95c-5.76,0.06-11.48-0.51-17.17-1.34
		c-1.5-0.22-2.98-0.58-4.46-0.93c-2.51-0.6-4.97-1.45-7.51-1.82c-3.4-0.49-6.66-1.28-9.71-2.86c-0.36-0.19-0.75-0.35-1.14-0.46
		c-3.59-0.98-5.89,0.76-5.93,4.49c-0.01,0.94-0.07,1.89,0.07,2.81c0.1,0.65,0.38,1.34,0.77,1.87c0.71,0.98,1.75,1.55,2.96,1.73
		c2.61,0.38,5.21,0.9,7.84,1.09c5.91,0.43,11.78,1.12,17.63,2.07c2.37,0.38,4.74,0.87,7.13,1.03c4.86,0.32,9.74,0.3,14.59,0.68
		c5.84,0.45,11.67,1.14,17.5,1.77c4.19,0.46,8.37,1.08,12.57,1.49C352.07,221.31,354.78,221.3,357.47,221.42z M556.26,257.31
		c0-0.04,0.01-0.08,0.01-0.12c0.47,0.03,0.94,0.08,1.4,0.1c1.71,0.08,3.41,0.08,5-0.66c1.34-0.62,1.59-1.15,0.96-2.48
		c-0.37-0.78-0.97-1.45-1.44-2.19c-1.3-2.07-2.58-4.15-4.39-5.85c-2.89-2.71-6.21-4.15-10.23-3.63c-4.94,0.64-9.88,1.28-14.82,1.95
		c-2.96,0.4-5.91,0.9-8.88,1.27c-3.37,0.42-6.75,0.96-10.13,1.04c-6.75,0.16-13.48,0.34-20.19,1.12c-3.84,0.45-7.72,0.56-11.58,0.84
		c-5.96,0.42-11.92,0.94-17.89,1.26c-6.79,0.36-13.59,0.52-20.39,0.79c-1.46,0.06-2.92,0.23-4.37,0.42
		c-0.27,0.04-0.74,0.45-0.71,0.59c0.08,0.33,0.37,0.65,0.64,0.89c0.15,0.13,0.45,0.09,0.68,0.11c1.93,0.13,3.86,0.32,5.79,0.38
		c7.5,0.25,15,0.45,22.5,0.68c7.03,0.22,14.06,0.51,21.1,0.67c12.02,0.27,24.04,0.41,36.06,0.7c6.51,0.16,13.01,0.4,19.51,0.81
		C548.71,256.21,552.48,256.85,556.26,257.31z M270.45,244.3c0.82,0.06,1.64,0.13,2.46,0.18c2.98,0.19,5.96,0.38,8.95,0.58
		c4.5,0.3,9,0.62,13.51,0.91c1.17,0.08,2.34,0.12,3.51,0.12c0.62,0,1.43,0.07,1.58-0.76c0.15-0.86-0.59-1.21-1.24-1.48
		c-0.59-0.24-1.22-0.44-1.85-0.52c-1.22-0.16-2.45-0.25-3.68-0.32c-1.29-0.08-2.61,0.05-3.86-0.19c-5.99-1.12-11.98-2.26-17.94-3.54
		c-1.81-0.39-3.54-1.13-5.16-2.15c-1.27-0.8-2.73-1.41-4.19-1.77c-2.37-0.59-4.48,0.45-6.33,3.17c-1.05,1.54-1.89,3.25-2.64,4.96
		c-0.35,0.81-0.42,1.83-0.33,2.72c0.12,1.15,1.05,1.69,2.18,1.4c1.42-0.37,2.84-0.75,4.19-1.3
		C263.09,244.9,266.8,244.81,270.45,244.3z M538.11,232.72c2.35,0.14,3.47-1.15,3.23-3.02c-0.28-2.25-2.87-4.07-4.39-4.3
		c-2.18-0.33-4.15,0.8-5.26,3.01c-0.72,1.43-0.39,2.61,1.01,3.39c0.45,0.25,0.97,0.45,1.48,0.52
		C535.64,232.51,537.1,232.62,538.11,232.72z M272.65,274.06c0.01-0.04,0.02-0.08,0.04-0.13c0.17,0,0.35,0,0.52,0
		c1.52-0.03,1.97-0.64,1.54-2.13c-0.08-0.28-0.14-0.61-0.32-0.8c-1.07-1.15-2.08-2.39-3.3-3.35c-1.42-1.12-3.13-0.36-3.59,1.41
		c-0.09,0.34-0.13,0.7-0.29,1c-0.69,1.38-0.42,2.32,1.52,3.03C270.01,273.55,271.35,273.74,272.65,274.06z M551.82,227.58
		c0.03-1.27-0.48-2.03-1.39-2.05c-1.2-0.03-2.77,0.89-2.77,1.62c0,0.99,1.37,2.58,2.26,2.62
		C551.12,229.83,551.78,229.07,551.82,227.58z"/>
	<path class="st0" d="M543.96,406.91c0-15.08,0-30.16,0-45.24c0-2.88,0.03-5.75,0.66-8.58c0.95-4.27,2.58-8.24,4.82-12
		c1.32-2.22,2.63-4.45,4.49-6.25c1.33-1.3,2.75-2.55,4.28-3.59c4.52-3.07,9.45-5.12,14.93-5.72c6.69-0.74,13.36-0.43,20.02,0.35
		c2.99,0.35,5.75,1.39,8.39,2.92c2.39,1.39,4.68,2.86,6.71,4.73c2.41,2.23,4.75,4.5,6.05,7.64c0.87,2.1,2.04,4.08,3.04,6.13
		c0.28,0.57,0.48,1.21,0.58,1.84c0.79,5.45,1.71,10.9,2.27,16.38c0.38,3.72,0.31,7.5,0.31,11.25c0.03,21.36-0.1,42.72,0.13,64.07
		c0.06,5.92-0.72,11.68-1.41,17.49c-0.51,4.3-1.64,8.42-3.52,12.29c-1.69,3.47-3.94,6.59-6.81,9.28c-2.12,1.98-4.52,3.52-7.02,4.89
		c-1.68,0.92-3.53,1.58-5.35,2.19c-3.52,1.18-7.15,1.78-10.89,1.73c-2.7-0.04-5.4-0.03-8.1,0.07c-3.09,0.11-6.1-0.29-8.99-1.36
		c-3.07-1.14-6.27-1.94-9.12-3.66c-2.12-1.28-4.07-2.74-5.72-4.6c-3.77-4.23-6.02-9.3-7.96-14.53c-1.48-3.98-1.71-8.13-1.71-12.31
		c-0.02-15.14-0.01-30.28-0.01-45.42C543.99,406.91,543.98,406.91,543.96,406.91z M568.97,407.26c0.01,0,0.02,0,0.03,0
		c0,11.38,0,22.76,0,34.14c0,4.63,0.04,9.27-0.02,13.9c-0.03,2.25,0.48,4.38,1.71,6.18c2.05,3.01,5.06,4.65,8.66,5.12
		c2.78,0.37,5.52-0.04,8.14-0.96c1.73-0.61,3.23-1.62,4.22-3.27c1.85-3.07,2.87-6.42,3.34-9.92c0.34-2.55,0.46-5.14,0.46-7.72
		c0.05-26.16,0.01-52.32,0.09-78.49c0.02-5.24-1.43-9.93-4.25-14.26c-1.04-1.6-2.37-2.91-4.3-3.43c-2.74-0.74-5.48-1.04-8.34-0.71
		c-4.52,0.52-7.36,2.96-8.98,7.07c-0.84,2.14-0.77,4.37-0.77,6.6C568.96,376.76,568.97,392.01,568.97,407.26z"/>
	<path class="st0" d="M422.34,517.08c-68.73,0-137.45,0-206.18,0c-35.68,0-71.37-0.02-107.05-0.03c-2.11,0-4.18-0.16-6.23-0.86
		c-2.91-0.99-3.68-2.94-3.87-5.66c-0.19-2.68,0.72-3.69,3.25-4.71c2.35-0.95,4.76-1.13,7.24-1.12c14.85,0.06,29.7,0.11,44.54,0.12
		c28.05,0.02,56.11,0.01,84.16,0.01c45.07,0,90.15,0,135.22-0.01c32.28,0,64.56-0.01,96.84,0c40.09,0,80.17,0.02,120.26,0.02
		c45.72,0,91.44-0.01,137.16-0.02c2.58,0,5.17-0.08,7.74,0.04c1.69,0.08,3.39,0.32,5.04,0.69c5,1.13,5.21,4.6,3.34,8.33
		c-1.09,2.16-3.17,2.93-5.42,3.04c-3.05,0.16-6.1,0.17-9.15,0.17c-44.78,0.01-89.56,0-134.34,0c-55.29,0-110.57-0.01-165.86-0.02
		C426.8,517.08,424.57,517.08,422.34,517.08z"/>
	<path class="st0" d="M637.22,407.1c0-22.24,0.01-44.48-0.01-66.72c0-2.35-0.21-4.69-0.18-7.04c0.02-1.57,0.24-3.15,0.43-4.72
		c0.12-0.97,0.72-1.65,1.67-1.82c1.49-0.28,3-0.62,4.5-0.62c10.62,0.02,21.24,0.03,31.86,0.26c3.98,0.09,7.9,1.05,11.74,2.17
		c0.79,0.23,1.58,0.42,2.37,0.64c3.91,1.08,7.35,2.97,10.31,5.76c2.05,1.93,4.07,3.9,5.49,6.36c1.04,1.81,1.99,3.69,2.82,5.61
		c0.76,1.77,1.33,3.63,1.96,5.46c1.34,3.89,1.55,7.95,1.59,11.99c0.07,8.15-0.01,16.31-0.09,24.47c-0.04,3.74-0.99,7.3-2.5,10.72
		c-0.94,2.14-1.34,4.5-2.67,6.48c-0.95,1.4-1.77,2.9-2.84,4.21c-5.59,6.87-13.02,10.18-21.71,10.79c-3.62,0.25-7.26,0.12-10.89,0.17
		c-1.35,0.02-2.7,0.13-4.04,0.11c-2.5-0.03-3.49,1.29-3.84,4.09c-0.23,1.85-0.12,3.75-0.12,5.63c0.02,15.2,0.05,30.4,0.08,45.6
		c0,1.82,0.01,3.64,0.01,5.45c0,0.35-0.01,0.71-0.04,1.06c-0.25,2.63-0.89,3.27-3.5,3.37c-1.52,0.06-3.05,0.02-4.58,0.02
		c-4.63,0.03-9.27,0.06-13.9,0.08c-0.47,0-0.94-0.02-1.41-0.06c-1.12-0.09-1.88-0.68-2.15-1.76c-0.22-0.9-0.44-1.84-0.44-2.76
		c-0.01-4.46,0.08-8.92,0.08-13.38c0.01-20.54,0-41.08,0-61.62C637.23,407.1,637.22,407.1,637.22,407.1z M663.11,374.13
		c-0.02,0-0.05,0-0.07,0c0,5.93-0.03,11.85,0.02,17.78c0.01,1.58,0.12,3.17,0.41,4.72c0.37,1.95,1.15,2.64,3.14,2.67
		c4.87,0.06,9.75,0.16,14.37-1.84c1.51-0.66,2.66-1.7,3.64-2.93c1.28-1.61,1.79-3.49,1.8-5.58c0.02-7.92,0.15-15.84,0.17-23.76
		c0.01-1.93-0.11-3.88-0.36-5.79c-0.5-3.89-2.33-6.85-6.21-8.2c-0.77-0.27-1.58-0.53-2.38-0.59c-3.04-0.22-6.09-0.55-9.13-0.48
		c-4.41,0.09-5.41,1.29-5.41,5.71C663.1,361.92,663.11,368.02,663.11,374.13z"/>
	<path class="st0" d="M148.63,459.29c0,4.75,0,13.67,0,22.59c0,0.58,0,1.18-0.12,1.75c-0.32,1.5-1.07,2.6-2.77,2.71
		c-0.76,0.05-1.51,0.2-2.27,0.21c-3.11,0.02-6.22-0.03-9.33,0.01c-2.58,0.03-5.15,0.17-7.72,0.24c-0.41,0.01-0.83-0.01-1.22-0.11
		c-1.38-0.36-1.91-1.11-1.91-2.55c0.04-11.56,0.1-23.11,0.11-34.67c0.01-30.51,0.01-61.03,0-91.54c0-8.39-0.09-16.78-0.06-25.17
		c0.01-1.62,0.32-3.25,0.58-4.86c0.17-1.06,0.88-1.58,2-1.58c3.1,0.02,6.21-0.01,9.31,0c8.63,0.03,17.25-0.05,25.88,0.16
		c3.92,0.1,7.82,0.77,11.55,2.13c0.39,0.14,0.77,0.29,1.17,0.37c3.78,0.82,7.28,2.3,10.26,4.75c3.33,2.73,6.66,5.62,8.54,9.56
		c2.66,5.56,4.93,11.29,4.96,17.64c0.03,7.8,0.21,15.6,0.24,23.41c0.03,5.62-0.84,11.11-2.93,16.36c-1.63,4.1-3.75,7.86-6.81,11.16
		c-3.77,4.07-8.41,6.38-13.55,8.04c-3.62,1.17-7.36,1.45-11.11,1.55c-2.93,0.07-5.87-0.02-8.8,0c-4.25,0.03-5.95,1.63-6.27,5.89
		c-0.07,0.88-0.05,1.76-0.04,2.64C148.39,438.34,148.49,446.73,148.63,459.29z M148.59,375.14c-0.04,0-0.09,0-0.13,0
		c0,1.23,0.01,2.46,0,3.7c-0.04,4.52-0.13,9.03-0.09,13.55c0.01,1.57,0.3,3.14,0.58,4.69c0.22,1.23,1.04,1.89,2.34,1.99
		c4.93,0.38,9.81,0.68,14.55-1.34c1.81-0.77,3.2-1.91,4.4-3.35c1.43-1.73,1.61-3.88,1.64-6c0.11-7.74,0.18-15.49,0.19-23.23
		c0-2.16-0.18-4.34-0.45-6.49c-0.57-4.47-3.39-7.46-7.83-7.99c-2.95-0.36-5.96-0.32-8.95-0.28c-1.38,0.02-2.75,0.47-4.12,0.77
		c-0.94,0.21-1.46,0.9-1.86,1.73c-0.72,1.49-0.65,3.08-0.62,4.66C148.35,363.41,148.47,369.27,148.59,375.14z"/>
	<path class="st0" d="M383.22,439.9c2.46,0,4.93-0.03,7.39,0.01c1.05,0.02,2.11,0.14,3.15,0.29c1.12,0.16,1.79,0.89,1.97,1.97
		c0.2,1.21,0.39,2.44,0.41,3.66c0.03,2.46-0.08,4.93-0.08,7.39c0,1.4-0.02,2.83,0.2,4.21c0.73,4.54,4.23,7.87,9.38,9.07
		c3.43,0.8,6.69,0.35,9.73-1.24c2.57-1.35,4.38-3.5,5.19-6.37c0.24-0.85,0.42-1.71,0.72-2.54c1.52-4.29,0.81-8.58-0.01-12.86
		c-0.34-1.78-0.85-3.54-1.34-5.29c-0.67-2.4-1.97-4.47-3.3-6.55c-3.56-5.56-8.49-9.82-13.16-14.33c-2.36-2.28-4.76-4.52-7.16-6.77
		c-1.58-1.48-3.27-2.85-4.74-4.43c-2.07-2.22-4.07-4.53-5.95-6.92c-1.77-2.25-3.46-4.58-4.99-6.99c-3.42-5.38-5.92-11.14-7.01-17.49
		c-0.75-4.36-1.19-8.71-1.07-13.13c0.01-0.47-0.03-0.95,0.05-1.41c1.06-6.07,2.05-12.16,4.6-17.83c0.78-1.74,1.98-3.31,3.13-4.85
		c2.99-4.02,6.79-7.07,11.28-9.28c2.98-1.47,6.15-2.36,9.42-2.71c6.62-0.7,13.25-0.51,19.85,0.27c2.82,0.33,5.4,1.42,7.88,2.83
		c2.1,1.19,4.09,2.46,5.94,4.01c2.61,2.18,4.58,4.84,6.23,7.75c2.54,4.48,4.39,9.19,4.8,14.4c0.19,2.4,0.67,4.77,0.81,7.16
		c0.12,2.04,0.07,4.1-0.14,6.14c-0.26,2.57-1.21,3.35-3.8,3.39c-5.16,0.07-10.33,0.09-15.49,0.11c-1.86,0.01-2.95-1.05-3.16-3.06
		c-0.16-1.52-0.29-3.04-0.3-4.57c-0.01-4.05-1.24-7.74-3.14-11.23c-1.39-2.56-3.47-4.02-6.46-4.58c-3.95-0.74-7.6-0.13-11.12,1.51
		c-1.01,0.47-1.95,1.34-2.59,2.27c-1.73,2.49-2.71,5.24-2.94,8.34c-0.39,5.27,0.36,10.31,2.49,15.12c1.02,2.3,2.46,4.36,4.08,6.31
		c1.98,2.37,3.8,4.88,5.8,7.23c1.58,1.86,3.15,3.73,5.27,5.1c1.76,1.13,3.31,2.6,4.89,3.98c2.3,2,4.57,4.03,6.81,6.09
		c2.75,2.54,5.23,5.35,7.51,8.32c1.74,2.27,3.38,4.62,4.96,7c0.77,1.16,1.3,2.48,1.94,3.73c1,1.98,2.09,3.93,2.96,5.97
		c0.55,1.28,0.88,2.68,1.13,4.05c1.41,7.84,1.51,15.77,1.13,23.69c-0.25,5.31-1.53,10.41-4.21,15.12c-1.37,2.41-2.83,4.73-4.69,6.76
		c-1.9,2.07-4.17,3.69-6.59,5.16c-3.47,2.11-7.27,3.23-11.12,4.24c-1.35,0.35-2.77,0.55-4.16,0.58c-4.17,0.09-8.33,0.03-12.5,0.09
		c-2.58,0.04-5.01-0.62-7.39-1.46c-2.92-1.04-5.97-1.71-8.61-3.5c-2.2-1.5-4.1-3.24-5.74-5.34c-1.81-2.32-3.4-4.76-4.71-7.39
		c-1.51-3.02-2.32-6.26-3.14-9.5c-1.38-5.43-2.09-10.94-2.02-16.55c0.01-0.47,0.02-0.94,0.06-1.41c0.22-2.64,0.96-3.44,3.57-3.53
		c2.69-0.08,5.39-0.02,8.09-0.02C383.22,440.03,383.22,439.97,383.22,439.9z"/>
	<path class="st0" d="M301.28,419.44c0,19.07,0,38.15,0.01,57.22c0,1.82,0.09,3.64,0.11,5.46c0.01,0.59,0.01,1.18-0.08,1.76
		c-0.31,2.08-1,2.72-3.14,2.74c-4.52,0.04-9.04,0.02-13.56,0.02c-1.58,0-3.17,0-4.75,0.02c-2.31,0.03-3.96-1.5-3.95-3.89
		c0.05-11.03-0.15-22.06-0.16-33.09c-0.03-28,0-56,0.01-83.99c0-2.7,0.14-5.4,0.14-8.1c0-1.34-0.1-2.7-0.3-4.03
		c-0.29-1.94-1.7-3.28-3.67-3.42c-1.51-0.1-3.05-0.01-4.57,0.04c-4.22,0.15-8.44,0.33-12.66,0.48c-0.46,0.02-0.94-0.04-1.4-0.12
		c-1.25-0.23-2.18-0.89-2.53-2.15c-0.23-0.84-0.49-1.71-0.51-2.57c-0.12-4.98-0.26-9.97-0.22-14.96c0.02-3.58,1.42-4.77,5.04-4.76
		c19.9,0.08,39.79,0.15,59.69,0.22c2.81,0.01,5.63-0.06,8.43,0.04c4.65,0.17,4.27,1.63,4.28,4.4c0.03,4.64,0.15,9.27,0.18,13.9
		c0.01,1.05-0.12,2.12-0.36,3.14c-0.39,1.68-1.38,2.51-3.11,2.57c-2.23,0.07-4.46,0.01-6.69,0.01c-3.64,0-7.28-0.05-10.91,0.04
		c-1.15,0.03-2.3,0.38-3.43,0.68c-1.08,0.28-1.67,1.06-1.75,2.17c-0.12,1.7-0.3,3.39-0.3,5.09c0,7.34,0.08,14.67,0.09,22.01
		c0.02,9.86,0,19.72,0,29.58c0,3.17,0,6.34,0,9.51C301.25,419.44,301.27,419.44,301.28,419.44z"/>
	<path class="st0" d="M507.75,418.84c0,16.9-0.02,33.8,0.01,50.7c0.01,4.11,0.16,8.21,0.25,12.32c0,0.18,0.01,0.35,0.01,0.53
		c-0.05,3.18-1.04,4.21-4.25,4.24c-3.11,0.03-6.22-0.07-9.33-0.06c-2.64,0.01-5.27,0.12-7.91,0.11c-2.28-0.01-2.95-0.54-3.4-2.72
		c-0.21-1.02-0.25-2.09-0.25-3.14c0.01-3.75,0.1-7.51,0.09-11.26c-0.01-5.69-0.1-11.38-0.11-17.07c-0.01-28.75,0-57.51,0.02-86.26
		c0-2.87,0.18-5.75,0.19-8.62c0-1.46-0.15-2.92-0.31-4.38c-0.17-1.59-1.07-2.6-2.69-2.8c-1.33-0.16-2.69-0.26-4.03-0.25
		c-5.1,0.06-10.2,0.19-15.31,0.28c-0.47,0.01-0.94-0.02-1.4-0.08c-1.98-0.27-2.94-1.23-3.08-3.2c-0.15-1.99-0.26-3.98-0.29-5.97
		c-0.06-2.87-0.04-5.75-0.05-8.62c0-0.76,0-1.53,0.1-2.29c0.32-2.5,1.45-3.67,3.95-3.93c1.45-0.15,2.93-0.17,4.39-0.17
		c12.2,0.03,24.41,0.09,36.61,0.12c7.28,0.02,14.55,0,21.83-0.02c2.11-0.01,4.22-0.13,6.33-0.1c1.05,0.02,2.1,0.21,3.13,0.41
		c0.97,0.19,1.52,0.83,1.58,1.85c0,0.06,0.01,0.12,0.01,0.18c0.01,5.69,0.05,11.37-0.01,17.06c-0.01,1.03-0.42,2.06-0.71,3.07
		c-0.31,1.08-1.1,1.63-2.21,1.69c-0.7,0.04-1.41,0.05-2.11,0.04c-4.87-0.03-9.74-0.11-14.61-0.06c-1.38,0.01-2.78,0.36-4.14,0.66
		c-1.37,0.3-2.08,1.28-2.19,2.64c-0.11,1.34-0.19,2.69-0.19,4.04c0,11.33,0.03,22.65,0.04,33.98c0.01,9.04,0,18.07,0,27.11
		C507.74,418.84,507.74,418.84,507.75,418.84z"/>
	<path class="st0" d="M235.89,406.53c0,23.18-0.01,46.36,0.01,69.54c0,2.05,0.2,4.1,0.23,6.16c0.04,3.41-1.01,4.42-4.39,4.42
		c-4.75,0-9.51,0.07-14.26,0.02c-1.39-0.02-2.81-0.22-4.15-0.58c-1.95-0.52-2.61-1.58-2.58-3.63c0.04-2.46,0.14-4.93,0.15-7.39
		c0.03-9.03,0.01-18.07,0.04-27.1c0.02-4.69,0.13-9.39,0.13-14.08c0-2.4-0.21-4.81-0.19-7.21c0.02-3.75,0.22-7.51,0.22-11.26
		c0-5.16-0.14-10.32-0.16-15.49c-0.03-6.8,0-13.61-0.01-20.41c0-6.8-0.03-13.61-0.02-20.41c0.01-2.52,0.19-5.04,0.18-7.56
		c-0.03-6.75-0.14-13.49-0.19-20.24c-0.01-0.81,0.12-1.64,0.27-2.44c0.28-1.48,1.09-2.28,2.61-2.4c2.16-0.17,4.33-0.24,6.5-0.26
		c3.22-0.03,6.45,0.04,9.67,0.04c1.05,0,2.1-0.21,3.15-0.15c1.55,0.09,2.25,0.75,2.38,2.29c0.19,2.22,0.34,4.45,0.35,6.68
		c0.02,23.83,0.01,47.65,0.01,71.48C235.87,406.53,235.88,406.53,235.89,406.53z"/>
	<path class="st0" d="M700.51,282.96c0,1.64,0.01,3.28-0.01,4.93c-0.01,0.88-0.04,1.76-0.13,2.63c-0.22,2.04-1.38,3.45-2.97,3.68
		c-1.57,0.23-3.37-0.73-4.03-2.52c-0.54-1.46-0.77-3.06-0.98-4.62c-0.56-4.24-1.08-8.49-1.55-12.74c-0.39-3.5-0.79-7-1.01-10.5
		c-0.29-4.53-1.38-8.91-2.3-13.32c-0.58-2.75-1.21-5.49-1.76-8.24c-0.75-3.74-1.72-7.41-2.98-11.01c-0.5-1.43-0.65-2.98-1.1-4.43
		c-1.19-3.86-2.42-7.71-3.71-11.55c-1.42-4.22-2.85-8.44-4.4-12.61c-0.79-2.13-1.87-4.16-2.77-6.25c-0.92-2.15-1.67-4.38-2.69-6.49
		c-1.74-3.63-3.64-7.18-5.46-10.77c-0.71-1.41-1.36-2.85-2.1-4.24c-0.85-1.6-1.74-3.19-2.65-4.75c-1.06-1.81-2.15-3.61-3.24-5.4
		c-1.52-2.5-2.98-5.03-4.58-7.48c-1.82-2.79-3.77-5.5-5.65-8.26c-1.49-2.18-2.87-4.43-4.46-6.53c-2.12-2.8-4.35-5.51-6.6-8.2
		c-3.91-4.68-7.85-9.33-11.83-13.95c-1.64-1.91-3.39-3.73-5.15-5.52c-3.41-3.47-6.84-6.92-10.33-10.32
		c-1.97-1.92-4.04-3.75-6.1-5.57c-2.72-2.4-5.44-4.8-8.24-7.1c-2.17-1.78-4.45-3.42-6.71-5.08c-2.25-1.66-4.54-3.28-6.82-4.9
		c-0.95-0.67-1.91-1.34-2.91-1.94c-2.87-1.72-5.11-4.11-7.13-6.7c-1.25-1.6-1.7-3.6-1.92-5.59c-0.16-1.54,0.65-2.24,2.16-1.79
		c1.39,0.42,2.77,0.99,3.99,1.77c2.81,1.8,5.55,3.71,8.26,5.66c2.99,2.15,5.97,4.32,8.85,6.62c4.62,3.69,9.23,7.41,13.68,11.29
		c5.43,4.74,10.87,9.49,16,14.56c4.71,4.65,9.39,9.34,13.48,14.6c2.73,3.51,5.89,6.69,8.63,10.2c2.45,3.14,4.58,6.52,6.86,9.79
		c0.64,0.91,1.25,1.86,1.98,2.69c2.59,2.91,4.5,6.27,6.49,9.59c0.42,0.7,0.83,1.43,1.33,2.07c2.13,2.68,3.63,5.73,5.3,8.69
		c1.38,2.44,3.02,4.75,4.31,7.24c3.06,5.94,5.98,11.95,8.95,17.93c3.6,7.26,6.3,14.9,9.02,22.51c1.78,4.96,3.22,10.05,4.74,15.1
		c1.01,3.36,1.9,6.77,2.81,10.16c0.29,1.07,0.44,2.18,0.69,3.27c1.56,6.68,2.83,13.41,3.66,20.22c0.35,2.9,1.18,5.74,1.56,8.64
		c0.63,4.82,1.07,9.67,1.58,14.5C700.57,282.95,700.54,282.96,700.51,282.96z"/>
	<path class="st0" d="M142.59,287.54c0.53-4.3,1.08-8.6,1.58-12.91c0.4-3.5,0.71-7,1.1-10.5c0.21-1.86,0.42-3.73,0.76-5.57
		c1.05-5.77,2.14-11.53,3.28-17.29c0.31-1.55,0.89-3.03,1.27-4.57c0.85-3.47,1.61-6.97,2.49-10.44c0.34-1.36,0.94-2.64,1.34-3.99
		c0.87-2.92,1.49-5.93,2.59-8.75c1.46-3.77,2.58-7.68,4.26-11.32c1.55-3.36,2.56-6.92,4.21-10.22c1.75-3.5,3.49-7,5.23-10.51
		c0.47-0.94,0.93-1.88,1.37-2.84c1.84-3.99,4.09-7.75,6.49-11.44c0.95-1.46,1.6-3.12,2.53-4.6c2.97-4.69,5.43-9.7,8.79-14.15
		c0.98-1.3,1.69-2.8,2.61-4.16c1.61-2.37,3.29-4.69,4.93-7.03c0.57-0.81,1.14-1.62,1.69-2.46c2.02-3.1,4.46-5.85,6.92-8.6
		c2.11-2.35,3.93-4.96,6.04-7.31c3.01-3.35,6.15-6.59,9.27-9.85c1.78-1.86,3.61-3.68,5.48-5.46c1.86-1.78,3.81-3.47,5.7-5.22
		c1.59-1.47,3.11-3.02,4.73-4.45c2.24-1.97,4.59-3.8,6.52-6.09c0.19-0.22,0.41-0.44,0.67-0.56c0.84-0.39,1.73-1.02,2.65-0.49
		c0.9,0.52,0.76,1.58,0.62,2.41c-0.59,3.35-1.36,6.59-3.74,9.3c-1.53,1.75-3.41,3.02-5.03,4.62c-3.04,3.01-6.15,5.96-9.08,9.08
		c-4.93,5.26-9.89,10.52-14.57,16c-4.14,4.85-7.97,9.98-11.86,15.05c-2.07,2.69-4.05,5.46-5.94,8.28c-2.35,3.5-4.6,7.07-6.81,10.66
		c-2.15,3.49-4.24,7.01-6.25,10.57c-1.29,2.29-2.4,4.68-3.61,7.02c-1.58,3.06-3.22,6.1-4.73,9.19c-1.13,2.31-2.12,4.69-3.15,7.05
		c-1.08,2.47-2.17,4.93-3.19,7.43c-0.87,2.11-1.7,4.25-2.44,6.41c-0.91,2.66-1.7,5.36-2.58,8.03c-1.08,3.28-2.3,6.52-3.25,9.84
		c-1.15,4-2.11,8.05-3.1,12.09c-0.67,2.73-1.31,5.48-1.84,8.24c-1.13,5.93-2.25,11.87-3.23,17.82c-0.45,2.71-0.64,5.48-0.81,8.23
		c-0.23,3.81-0.25,7.63-0.5,11.43c-0.12,1.8-0.41,3.62-0.89,5.36c-0.71,2.56-5.31,3.87-7.24,2.05c-0.57-0.54-0.85-1.53-1-2.36
		c-0.17-0.97-0.04-1.99-0.04-2.98C142.77,287.56,142.68,287.55,142.59,287.54z"/>
	<path class="st0" d="M693.97,560.06c0-5.22-0.01-10.45,0.01-15.67c0-1.29,0.08-2.58,0.17-3.87c0.1-1.51,0.89-2.46,2.33-2.97
		c3.18-1.12,5.75,0.28,6.11,3.64c0.35,3.2,0.5,6.44,0.5,9.66c-0.01,7.04-0.2,14.08-0.24,21.12c-0.01,2.57,0.16,5.14,0.36,7.71
		c0.12,1.58,0.72,2.13,2.27,2.44c2.24,0.45,4.48,0.9,6.79,0.32c0.55-0.14,1.17-0.08,1.75-0.02c1.2,0.12,1.95,0.83,2.16,1.99
		c0.34,1.82,0.13,3.63-0.47,5.38c-0.35,1.01-1.17,1.43-2.22,1.38c-1.35-0.07-2.69-0.19-4.03-0.23c-3.69-0.12-7.39-0.16-11.08-0.34
		c-1.63-0.08-3.26-0.27-4.74-1.15c-0.81-0.48-1.68-0.12-2.55,0.12c-1.46,0.4-2.94,0.79-4.44,0.93c-1.81,0.17-2.55-0.42-3.09-2.2
		c-0.44-1.45-0.86-2.93-1.09-4.43c-0.27-1.75-1.51-2.72-2.65-3.8c-0.26-0.25-0.77-0.37-1.14-0.34c-1.28,0.08-2.57,0.15-3.81,0.43
		c-0.93,0.21-1.63,0.92-1.96,1.87c-0.54,1.55-1.08,3.1-1.56,4.67c-0.41,1.37-0.87,2.68-2.09,3.57c-1.56,1.13-3.84,0.67-4.67-1.04
		c-0.29-0.6-0.39-1.36-0.36-2.04c0.12-2.99,0.36-5.96,1.2-8.86c1.62-5.54,2.51-11.2,2.57-16.98c0.01-1.28,0.26-2.57,0.53-3.83
		c0.71-3.38,1.54-6.75,2.23-10.13c0.47-2.29,0.77-4.62,1.15-6.93c0.32-1.94,1.47-3.09,3.42-3.1c1.63-0.01,3.28,0.14,4.88,0.45
		c1.94,0.38,3.16,1.66,3.68,3.6c1.05,3.91,2.09,7.82,2.09,11.92c0,0.99,0.19,1.98,0.3,2.97c0.39,3.26,0.42,6.62,1.25,9.76
		c1.46,5.5,1.47,11.14,2.22,16.7c0.14,1.07,0.66,1.87,1.29,2.63c0.52,0.64,1.16,0.65,1.6-0.03c0.37-0.57,0.57-1.27,0.71-1.94
		c0.75-3.59,0.72-7.23,0.7-10.87c-0.02-4.17,0-8.33,0-12.5C694.02,560.06,694,560.06,693.97,560.06z M674.3,568.23
		c0.05,0.99,0.08,1.99,0.15,2.98c0.06,0.82,0.46,1.44,1.27,1.74c1.34,0.49,2.68,0.31,3.95-0.15c0.4-0.14,0.82-0.74,0.88-1.19
		c0.17-1.2,0.32-2.45,0.17-3.63c-0.41-3.13-0.98-6.24-1.49-9.36c-0.07-0.4-0.13-0.82-0.27-1.19c-0.39-1.02-1.16-1.16-1.85-0.33
		c-0.22,0.26-0.42,0.59-0.51,0.91C675.68,561.37,674.11,564.6,674.3,568.23z"/>
	<path class="st0" d="M176.39,560.16c-0.61,0.76-0.82,1.73-1.01,2.69c-0.66,3.35-0.97,6.73-0.84,10.15
		c0.17,4.39,0.34,8.78,0.48,13.17c0.02,0.81-0.04,1.65-0.21,2.44c-0.39,1.76-1.21,2.37-2.96,2.37c-1.69,0.01-3.14-0.95-3.35-2.51
		c-0.27-1.97-0.38-3.97-0.4-5.96c-0.04-6.04,0.15-12.09-0.04-18.12c-0.21-6.63-0.4-13.25-0.17-19.88c0.06-1.74,0.46-3.48,0.74-5.21
		c0.16-0.97,0.73-1.54,1.74-1.71c2.08-0.35,4.12-0.85,6.25-0.21c1.53,0.46,2.62,1.33,3.05,2.86c0.59,2.08,1.11,4.19,1.62,6.3
		c0.36,1.48,0.74,2.96,0.94,4.47c0.27,2.03,0.38,4.09,0.57,6.13c0.32,3.44,0.66,6.88,0.99,10.33c0.09,0.96,0.67,1.61,1.4,2.14
		c0.74,0.54,1.36,0.36,1.62-0.51c0.24-0.78,0.49-1.61,0.45-2.4c-0.11-2.49,0.32-4.9,0.67-7.34c0.46-3.25,0.67-6.54,1.24-9.77
		c0.56-3.17,1.36-6.3,2.17-9.41c0.57-2.18,2.57-3.35,4.93-2.94c1.44,0.25,2.84,0.73,4.24,1.13c1.32,0.37,1.84,1.37,1.93,2.64
		c0.11,1.64,0.26,3.28,0.27,4.92c0.04,8.68,0.03,17.37,0.04,26.05c0.01,4.51,0.04,9.03,0.06,13.54c0,0.41-0.02,0.82-0.06,1.23
		c-0.26,2.58-1.16,3.41-3.69,3.91c-3.08,0.6-3.77-0.44-3.95-3.07c-0.09-1.4-0.05-2.81-0.06-4.22c-0.03-4.63-0.05-9.26-0.11-13.89
		c-0.01-0.64-0.09-1.31-0.32-1.89c-0.15-0.36-0.66-0.83-0.98-0.8c-0.43,0.03-0.94,0.41-1.2,0.78c-0.25,0.35-0.25,0.89-0.31,1.35
		c-0.57,4.54-1.09,9.08-1.7,13.61c-0.35,2.58-1.15,5-2.86,7.08c-0.99,1.21-2.27,1.57-3.61,1.2c-1.22-0.34-2.38-1.05-2.63-2.53
		c-0.24-1.44-0.52-2.88-0.66-4.34c-0.43-4.32-0.69-8.66-1.24-12.96c-0.42-3.25-1.17-6.45-1.81-9.67
		C177.52,560.72,177.28,560.14,176.39,560.16z"/>
	<path class="st0" d="M660.24,564.03c0,7.33,0,14.66,0,21.99c0,0.41,0.02,0.83-0.04,1.23c-0.24,1.72-1.57,3.45-2.82,3.72
		c-2.04,0.44-3.76-0.18-4.77-2.1c-1-1.91-1.99-3.91-2.51-5.98c-1.05-4.21-1.81-8.49-3.26-12.59c-0.41-1.16-0.94-2.27-1.33-3.43
		c-0.65-1.94-1.27-3.9-1.84-5.86c-0.4-1.36-0.87-2.07-1.49-1.86c-0.99,0.35-0.85,1.27-0.93,2.08c-0.47,5.04,0.07,10.06,0.19,15.1
		c0.09,3.32,0.6,6.67-0.15,9.98c-0.19,0.85-0.42,1.71-0.78,2.49c-0.68,1.47-1.92,2.17-3.35,2.04c-1.27-0.11-2.81-1.42-3.1-2.76
		c-0.17-0.79-0.23-1.63-0.22-2.44c0.07-3.75,0.29-7.5,0.27-11.25c-0.04-9.5-0.2-19-0.27-28.51c-0.01-1.69,0.09-3.4,0.28-5.08
		c0.22-1.97,0.9-2.63,2.78-3.11c0.4-0.1,0.79-0.23,1.17-0.36c2.99-0.97,5.67,0.28,6.83,3.17c1.49,3.7,2.73,7.47,3.3,11.44
		c0.14,0.97,0.55,1.89,0.83,2.84c0.35,1.18,0.72,2.35,1.02,3.53c0.19,0.72,0.38,1.45,1.27,1.41c0.79-0.03,1.03-0.7,1.09-1.38
		c0.17-1.87,0.46-3.73,0.45-5.6c-0.02-4.05-0.2-8.09,0.36-12.12c0.15-1.11,0.22-2.22,1.32-2.91c2.11-1.31,4.84-0.02,5.31,2.57
		c0.15,0.8,0.16,1.63,0.18,2.45c0.13,7.1,0.26,14.19,0.38,21.29C660.38,564.03,660.31,564.03,660.24,564.03z"/>
	<path class="st0" d="M207.25,565.5c0-5.93,0-11.85,0-17.78c0-1.75-0.02-3.51,0.03-5.26c0.02-0.64,0.15-1.29,0.36-1.89
		c0.47-1.41,1.31-2.34,2.9-2.72c4.08-0.98,8.15-1.08,12.2-0.09c1.85,0.45,3.61,1.33,5.36,2.14c0.53,0.24,0.97,0.84,1.27,1.38
		c0.97,1.7,1.6,3.53,1.78,5.49c0.16,1.81,0.31,3.63,0.36,5.44c0.02,0.81-0.14,1.64-0.35,2.43c-0.47,1.81-1.17,3.57-1.48,5.41
		c-0.23,1.35-0.21,2.82,0.08,4.15c0.62,2.85,1.52,5.65,2.23,8.48c0.74,2.98,0.2,5.95-0.21,8.91c-0.04,0.29-0.16,0.57-0.17,0.86
		c-0.15,3.58-2.37,5.61-5.31,7.04c-2.14,1.04-4.41,1.58-6.81,1.51c-1.88-0.05-3.75-0.1-5.63-0.18c-0.7-0.03-1.41-0.11-2.1-0.23
		c-3.39-0.58-4.15-1.28-4.58-4.7c-0.21-1.67-0.14-3.39-0.13-5.09c0.02-2.58,0.11-5.16,0.14-7.74c0.03-2.52,0.01-5.04,0.01-7.57
		C207.22,565.5,207.24,565.5,207.25,565.5z M215.86,573.98c-0.07,0.01-0.15,0.01-0.22,0.02c0.19,1.92,0.42,3.83,0.56,5.76
		c0.08,1.11,0.6,1.97,1.54,2.4c1.15,0.53,2.39,0.9,3.63,1.21c0.72,0.18,1.45-0.1,1.77-0.84c0.75-1.71,1.76-3.35,1.81-5.29
		c0.04-1.88,0.04-3.75-0.01-5.63c-0.04-1.62-0.58-3.11-1.55-4.41c-0.26-0.35-0.63-0.76-1.03-0.86c-3.36-0.9-6.07,0-6.48,4.14
		C215.77,571.62,215.86,572.81,215.86,573.98z M224.87,552.8c0.25-2.3-0.77-4.27-1.53-6.29c-0.16-0.43-0.67-0.83-1.11-1.04
		c-2.33-1.08-5.1,0.14-5.9,2.57c-0.24,0.72-0.44,1.48-0.46,2.22c-0.07,1.99-0.06,3.99-0.02,5.98c0.03,1.31,0.76,2.22,2.01,2.56
		c0.62,0.17,1.27,0.27,1.91,0.29c2.02,0.05,3.81-1.12,4.44-3.05C224.55,555.01,224.66,553.89,224.87,552.8z"/>
	<path class="st0" d="M275.13,578.63c-0.16,3.04-0.3,6.09-0.48,9.13c-0.09,1.55-1.02,2.44-2.46,2.84c-1.67,0.46-3.36,0.41-4.63-0.81
		c-0.61-0.58-0.95-1.66-1.04-2.54c-0.2-2.15-0.24-4.33-0.23-6.49c0.01-1.93,0.24-3.87,0.24-5.8c-0.01-9.92-0.07-19.83-0.1-29.75
		c0-1.23,0.01-2.47,0.14-3.69c0.26-2.53,1.02-3.49,3.54-3.87c2.31-0.35,4.66-0.44,7-0.46c1.39-0.02,2.79,0.34,4.19,0.48
		c3.32,0.35,5.84,2.17,7.64,4.76c0.99,1.43,1.51,3.34,1.75,5.11c0.39,2.78,0.46,5.63-0.19,8.4c-0.25,1.06-0.71,2.09-1.14,3.1
		c-0.43,1.02-0.96,2.01-1.41,3.03c-0.56,1.25-0.31,2.56,0.43,3.52c1.88,2.4,2.36,5.09,2.41,8.04c0.07,4.21,0.38,8.43,0.59,12.64
		c0.02,0.35,0.06,0.7,0.06,1.05c0.01,2.12-0.95,3.34-2.82,3.62c-1.74,0.26-4.24-0.73-4.51-2.74c-0.16-1.16-0.34-2.33-0.35-3.49
		c-0.04-2.93,0.03-5.87,0.03-8.8c0-0.76-0.11-1.52-0.11-2.28c-0.02-3.19-2.19-4.66-4.74-5.61c-1.82-0.68-3.71-0.23-3.86,2.35
		c-0.11,1.87-0.07,3.75-0.09,5.63c-0.01,0.88,0,1.76,0,2.64C275.06,578.62,275.09,578.63,275.13,578.63z M283.91,552.86
		c-0.15-1.04-0.36-2.08-0.43-3.13c-0.1-1.47-0.79-2.47-1.98-3.32c-0.95-0.68-2-0.63-3.02-0.76c-1.97-0.25-2.88,0.46-3.11,2.41
		c-0.27,2.33-0.48,4.66-0.6,7c-0.05,0.92,0.06,1.91,0.36,2.77c0.22,0.66,0.74,1.38,1.33,1.71c1.63,0.91,4.19,0.23,5.46-1.17
		C283.35,556.79,283.86,554.93,283.91,552.86z"/>
	<path class="st0" d="M397.15,580.94c0-1.58-0.02-3.17,0.01-4.75c0.03-2.04-0.54-3.95-1.3-5.8c-0.8-1.93-3.48-2.92-5.34-2
		c-1.19,0.59-1.67,1.74-1.69,2.91c-0.05,3.4-0.07,6.81,0.16,10.2c0.16,2.38,0.03,4.69-0.48,6.99c-0.39,1.75-1.18,2.46-2.99,2.32
		c-1.55-0.12-3.09-0.59-4.57-1.1c-0.49-0.17-0.93-0.89-1.11-1.45c-0.24-0.7-0.27-1.5-0.25-2.26c0.11-4.45,0.28-8.91,0.39-13.36
		c0.1-3.87,0.25-7.74,0.19-11.61c-0.1-6.16-0.31-12.31-0.59-18.46c-0.14-3.01,0.72-4.07,3.72-4.71c3.89-0.83,7.79-0.89,11.71-0.21
		c2.19,0.38,4.16,1.34,5.95,2.53c1.35,0.9,2.44,2.29,2.48,4.06c0.09,4.15,0.53,8.29-0.41,12.43c-0.46,2-0.66,4.03-1.61,5.9
		c-0.55,1.08,0.01,2.14,0.53,3c1.07,1.78,1.45,3.72,1.53,5.71c0.21,4.98,0.32,9.96,0.44,14.95c0.02,0.76,0,1.54-0.18,2.27
		c-0.5,2.01-2.99,3.05-4.79,2.06c-0.76-0.42-1.32-0.98-1.42-1.89c-0.12-1.17-0.26-2.33-0.31-3.5c-0.05-1.41-0.01-2.82-0.01-4.22
		C397.18,580.94,397.17,580.94,397.15,580.94z M388.51,553.26c0.06,0.01,0.12,0.01,0.18,0.02c0,1.23-0.07,2.47,0.02,3.69
		c0.1,1.31,0.7,2.39,2.04,2.8c1.73,0.53,3.97-0.3,4.93-1.9c2.16-3.59,1.97-7.25,0.1-10.89c-0.37-0.73-1-1.16-1.83-1.17
		c-0.82-0.01-1.64,0.01-2.45,0.12c-1.22,0.18-2.06,0.88-2.26,2.13C388.96,549.79,388.75,551.53,388.51,553.26z"/>
	<path class="st0" d="M502.81,578.91c0,2.35,0.07,4.7-0.03,7.04c-0.05,1.02-0.24,2.15-0.74,3.01c-0.97,1.66-3.59,2.19-5.35,1.32
		c-0.96-0.48-1.36-1.24-1.29-2.29c0.1-1.4,0.3-2.81,0.27-4.21c-0.15-6.28-0.43-12.55-0.53-18.83c-0.11-6.98-0.1-13.96-0.08-20.94
		c0-1.46,0.28-2.91,0.47-4.36c0.12-0.88,0.6-1.56,1.49-1.78c1.25-0.31,2.5-0.69,3.77-0.78c3.47-0.23,6.9,0.25,10.32,0.87
		c1.28,0.23,2.24,1,3.21,1.75c3.03,2.34,4.97,5.25,4.77,9.26c-0.05,1.05-0.09,2.12-0.04,3.17c0.12,2.24-0.5,4.27-1.46,6.26
		c-0.63,1.31-1.01,2.74-1.48,4.13c-0.36,1.05-0.02,2.01,0.61,2.81c1.37,1.73,2.03,3.75,2.18,5.85c0.35,5.03,0.53,10.07,0.7,15.11
		c0.03,0.92-0.14,1.88-0.41,2.76c-0.5,1.59-1.84,2.35-3.46,1.92c-3.27-0.86-4.1-1.07-4.19-4.97c-0.07-3.1,0.04-6.21,0.02-9.32
		c-0.01-1.22-0.04-2.47-0.29-3.67c-0.46-2.25-1.8-3.91-3.85-4.96c-2.07-1.06-4.09-0.09-4.5,2.22c-0.16,0.92-0.17,1.87-0.18,2.8
		c-0.03,1.94-0.01,3.87-0.01,5.81C502.77,578.91,502.79,578.91,502.81,578.91z M502.51,553.59c0.05,0.01,0.1,0.03,0.15,0.04
		c0,0.41-0.02,0.82,0,1.23c0.05,0.88,0.07,1.76,0.2,2.63c0.2,1.43,0.87,2.19,1.98,2.38c1.74,0.29,4.42-0.94,5.31-2.49
		c0.74-1.29,1.31-2.65,1.18-4.17c-0.13-1.52-0.22-3.05-0.52-4.53c-0.43-2.07-2.13-3.32-4.2-3.33c-1.38,0-2.63,0.81-2.97,2.22
		C503.16,549.55,502.87,551.58,502.51,553.59z"/>
	<path class="st0" d="M107.24,564.1c0-6.98-0.01-13.96,0.01-20.94c0-1.54,0.25-3.03,1.01-4.41c0.67-1.21,2.27-1.99,3.71-1.78
		c1.21,0.18,2.46,1.4,2.66,2.72c0.11,0.75,0.1,1.52,0.1,2.28c0.02,4.04,0.02,8.09,0.07,12.13c0.01,0.93,0.21,1.86,0.34,2.79
		c0.15,1.09,0.78,1.82,1.8,2.19c1.47,0.54,2.99,0.67,4.49,0.21c1.44-0.44,1.89-1.72,1.99-3.04c0.11-1.51,0.04-3.05-0.03-4.57
		c-0.18-3.93-0.07-7.85,0.61-11.74c0.4-2.32,2.13-3.29,4.41-2.63c2.69,0.78,3.71,2.72,3.87,5.24c0.15,2.45,0.16,4.92,0.16,7.37
		c0,3.87-0.03,7.74-0.11,11.61c-0.03,1.58-0.17,3.16-0.32,4.73c-0.47,4.87,0.08,9.73,0.09,14.59c0,1.51,0.27,3.03,0.41,4.54
		c0.31,3.32-0.59,4.6-3.85,5.41c-0.68,0.17-1.38,0.3-2.08,0.31c-1.48,0.01-2.53-0.72-2.72-2.21c-0.29-2.38-0.46-4.78-0.48-7.18
		c-0.03-3.75,0.1-7.5,0.15-11.26c0.01-0.53-0.03-1.06-0.09-1.58c-0.28-2.25-1.68-3.42-3.96-3.34c-0.41,0.01-0.82,0.03-1.23,0.07
		c-2.71,0.28-3.27,0.4-3.42,3.58c-0.19,4.16-0.07,8.32-0.09,12.49c-0.01,1.64,0.03,3.29-0.03,4.93c-0.03,0.81-0.13,1.65-0.36,2.42
		c-0.49,1.66-1.71,2.3-3.42,1.87c-1.97-0.5-3.14-1.77-3.44-3.78c-0.14-0.92-0.19-1.87-0.19-2.81c-0.02-6.75-0.01-13.49-0.01-20.24
		C107.28,564.1,107.26,564.1,107.24,564.1z"/>
	<path class="st0" d="M253.64,559.84c0-4.22-0.06-8.45,0.02-12.67c0.05-2.34,0.26-4.67,0.54-7c0.13-1.13,0.7-2.11,1.92-2.52
		c1.46-0.49,3.55,0.25,4.22,1.71c0.43,0.94,0.78,2,0.81,3.01c0.07,2.4-0.1,4.8-0.14,7.2c-0.05,3.11-0.08,6.22-0.09,9.33
		c-0.01,3.4-0.03,6.8,0.01,10.21c0.03,2.51,0.28,5.03,0.22,7.53c-0.1,4.24-0.87,8.22-4.39,11.23c-1.75,1.5-3.32,3.11-5.62,3.78
		c-1.97,0.57-3.88,0.38-5.63-0.54c-1.64-0.87-3.24-1.9-4.67-3.07c-1.06-0.87-2.02-1.98-2.7-3.17c-1.91-3.38-2.82-7.05-2.57-10.97
		c0.14-2.22,0.45-4.44,0.48-6.66c0.06-3.8-0.04-7.61-0.05-11.42c-0.01-3.81-0.01-7.62,0.05-11.42c0.02-1.34,0.18-2.69,0.37-4.02
		c0.3-2.08,1.17-2.89,3.25-3.01c2.87-0.17,5.02,1.35,5.05,4.31c0.07,6.74,0.07,13.48,0.08,20.22c0,2.29-0.04,4.57-0.06,6.86
		c-0.02,2.93-0.05,5.86-0.01,8.8c0.02,1.66,0.52,3.18,1.26,4.7c0.87,1.79,4.61,2.18,5.79,0.46c0.93-1.37,1.89-2.65,1.9-4.41
		c0.03-4.1,0.14-8.2,0.19-12.31c0.03-2.05,0-4.11,0-6.16C253.8,559.84,253.72,559.84,253.64,559.84z"/>
	<path class="st0" d="M137.19,586.31c0.28-1.38,0.61-2.75,0.82-4.13c0.28-1.91,0.48-3.83,0.68-5.75c0.23-2.21,0.35-4.43,0.67-6.63
		c0.86-5.91,1.89-11.8,2.67-17.72c0.36-2.72,0.27-5.51,1.11-8.16c0.48-1.5,1.1-2.95,1.7-4.41c0.13-0.31,0.36-0.68,0.64-0.81
		c2.19-1.01,4.4-1.97,6.91-1.37c1.89,0.46,3.04,1.59,3.37,3.58c0.33,2.02,0.78,4.02,1.24,6.02c0.3,1.31,0.68,2.61,1.12,3.88
		c1.18,3.44,1.14,7.04,1.43,10.59c0.27,3.26,0.3,6.53,1.22,9.73c0.69,2.4,0.93,4.94,1.35,7.42c0.43,2.54,0.85,5.07,1.25,7.62
		c0.09,0.57,0.15,1.17,0.09,1.74c-0.28,2.8-2.95,3.99-5.22,2.29c-1.14-0.85-2.07-1.91-2.35-3.39c-0.13-0.69-0.34-1.36-0.51-2.05
		c-0.98-4.1-5.22-5.88-8.74-3.58c-0.74,0.48-1.4,1.29-1.76,2.1c-0.52,1.16-0.8,2.44-1.08,3.7c-0.29,1.34-0.99,2.37-2.09,3.14
		c-0.89,0.63-1.75,0.62-2.6-0.04C137.88,589.15,137.08,587.97,137.19,586.31z M146.32,569.58c0.03,0,0.06,0.01,0.08,0.01
		c0,0.18,0,0.35,0,0.53c0.06,1.85,0.94,3.01,2.39,3.15c2.1,0.21,3.72-0.68,4.08-2.47c0.22-1.07,0.29-2.25,0.06-3.3
		c-0.54-2.52-1.29-4.99-1.97-7.47c-0.08-0.28-0.18-0.59-0.37-0.79c-0.3-0.32-0.69-0.79-1.03-0.78c-0.33,0.01-0.72,0.5-0.95,0.86
		c-0.22,0.33-0.3,0.76-0.39,1.16c-0.53,2.28-1.05,4.56-1.55,6.85C146.52,568.08,146.44,568.83,146.32,569.58z"/>
	<path class="st0" d="M296.25,563.36c-0.08-3.87-0.11-7.74-0.24-11.6c-0.1-2.83,0.12-5.63,0.65-8.4c0.16-0.82,0.61-1.69,1.18-2.3
		c1.78-1.9,3.89-3.36,6.35-4.3c2.29-0.88,4.57-0.56,6.71,0.3c4.21,1.69,7.39,4.47,8.65,9.05c0.17,0.62,0.45,1.21,0.68,1.81
		c0.14,0.38,0.36,0.76,0.41,1.15c0.41,3.32-0.35,5.31-4.59,4.57c-0.46-0.08-0.93-0.17-1.37-0.3c-1.53-0.46-2.54-1.43-2.8-3.06
		c-0.13-0.81-0.1-1.66-0.32-2.44c-0.21-0.76-0.5-1.6-1.01-2.16c-2.29-2.51-5.93-1.62-7,1.63c-0.84,2.55-0.88,5.19-0.89,7.83
		c-0.01,3.93,0.04,7.86,0.02,11.79c-0.02,2.93-0.26,5.86-0.13,8.78c0.08,1.78,0.51,3.59,1.06,5.31c0.64,2.01,3.75,3.25,5.72,2.47
		c0.97-0.38,1.78-0.99,2.04-2.04c0.27-1.07,0.47-2.17,0.58-3.27c0.13-1.4,0.12-2.81,0.2-4.22c0.09-1.63-0.18-3.15-1.26-4.45
		c-1.28-1.56-2.24-3.27-2.66-5.29c-0.44-2.1,0.28-3.12,2.27-3.73c2.26-0.69,4.4-0.3,6.56,0.2c1.43,0.33,2.6,1.12,2.93,2.7
		c0.18,0.86,0.41,1.72,0.42,2.59c0.04,3.64,0.11,7.28-0.05,10.91c-0.09,2.04-0.48,4.09-0.99,6.06c-0.28,1.09-0.99,2.12-1.68,3.04
		c-0.8,1.07-1.67,2.18-2.73,2.97c-3.03,2.23-6.43,3.7-10.18,2.31c-2.32-0.86-4.48-2.28-6.52-3.72c-0.73-0.52-1.07-1.8-1.29-2.8
		c-0.38-1.71-0.64-3.46-0.76-5.21c-0.2-2.81-0.31-5.63-0.33-8.44c-0.01-2.58,0.15-5.16,0.24-7.74
		C296.15,563.36,296.2,563.36,296.25,563.36z"/>
	<path class="st0" d="M424.2,581.14c-0.31-3.87,0.7-7.56,1.69-11.23c0.88-3.25,1.36-6.53,1.54-9.87c0.2-3.75,0.22-7.52,1.18-11.18
		c0.79-3,1.74-5.96,2.68-8.92c0.67-2.1,3.09-3.23,5.64-2.82c0.06,0.01,0.11,0.03,0.17,0.04c3.79,0.81,4.48,1.24,5.55,4.98
		c0.96,3.37,1.73,6.82,2.23,10.29c0.53,3.65,0.58,7.37,0.97,11.04c0.21,1.97,0.54,3.97,1.11,5.86c1.57,5.22,2.23,10.55,2.32,15.97
		c0.02,1.16-0.16,2.34-0.43,3.47c-0.28,1.21-1.02,2.22-2.36,2.3c-1.3,0.08-2.46-0.57-3.05-1.74c-0.66-1.3-1.25-2.68-1.56-4.09
		c-0.41-1.9-1.67-3.19-2.74-4.64c-0.16-0.22-0.45-0.37-0.71-0.5c-2.12-1.08-5.54-0.15-6.95,1.78c-0.91,1.24-1.36,2.56-1.38,4.08
		c-0.01,0.76-0.06,1.54-0.24,2.27c-0.57,2.31-2.01,2.68-3.98,2.5c-0.46-0.04-1-0.6-1.27-1.05c-0.29-0.47-0.4-1.11-0.41-1.68
		C424.18,585.71,424.2,583.42,424.2,581.14z M439.03,562.76c0.09-0.01,0.18-0.02,0.27-0.03c-0.23-1.74-0.42-3.48-0.73-5.21
		c-0.13-0.73-0.68-1.25-1.46-1.35c-0.76-0.1-1.24,0.38-1.48,1.01c-0.52,1.36-1.05,2.72-1.4,4.13c-0.38,1.53-0.54,3.11-0.81,4.67
		c-0.2,1.15-0.53,2.29-0.61,3.45c-0.22,3.38,0.92,4.29,4.18,3.5c1.03-0.25,1.76-0.77,1.92-1.79c0.22-1.44,0.39-2.9,0.41-4.35
		C439.33,565.44,439.13,564.1,439.03,562.76z"/>
	<path class="st0" d="M603.93,581.66c-0.6-3.07,0.5-6.64,1.68-10.23c0.64-1.93,1.06-3.96,1.35-5.98c0.81-5.56,1.41-11.16,2.28-16.71
		c0.42-2.65,1.24-5.24,1.96-7.84c0.86-3.08,3.34-4.47,6.45-3.71c0.51,0.12,1.01,0.34,1.52,0.43c1.74,0.3,2.82,1.41,3.43,2.96
		c0.47,1.19,0.86,2.44,1.08,3.7c0.68,3.8,1.35,7.61,1.85,11.44c0.34,2.61,0.27,5.27,0.61,7.88c0.36,2.78,0.99,5.53,1.5,8.29
		c0.07,0.4,0.2,0.8,0.24,1.2c0.36,3.43,0.69,6.87,1.04,10.3c0.07,0.64,0.23,1.28,0.22,1.92c-0.03,1.22-0.01,2.47-0.29,3.64
		c-0.35,1.46-1.07,1.9-2.53,1.98c-1.4,0.08-2.18-0.35-2.72-1.73c-0.53-1.36-1-2.76-1.33-4.18c-0.43-1.83-1.63-3.12-2.89-4.32
		c-1.13-1.08-2.68-0.99-4.18-0.83c-1.56,0.16-2.71,0.76-3.51,2.23c-0.7,1.27-1.22,2.51-1.17,3.97c0.02,0.52,0.06,1.12-0.16,1.56
		c-0.43,0.87-0.89,1.84-1.61,2.44c-1.66,1.4-3.78,0.59-4.31-1.5c-0.07-0.28-0.16-0.57-0.18-0.86
		C604.17,585.95,604.07,584.2,603.93,581.66z M619.71,568.51c-0.08-0.98-0.23-2.32-0.29-3.66c-0.06-1.34,0.01-2.69-0.06-4.04
		c-0.04-0.75-0.22-1.5-0.4-2.24c-0.1-0.39-0.3-0.77-0.54-1.09c-0.86-1.13-1.8-1.14-2.74-0.06c-0.97,1.11-1.26,2.48-1.47,3.87
		c-0.28,1.79-0.55,3.58-0.76,5.37c-0.16,1.33-0.3,2.68-0.31,4.02c-0.01,1.27,0.87,2.48,1.96,2.57c3.18,0.28,4.79-0.32,4.62-3.68
		C619.7,569.34,619.71,569.1,619.71,568.51z"/>
	<path class="st0" d="M490.9,585.33c0,0.94,0.08,1.88-0.02,2.81c-0.17,1.68-1.04,2.59-2.45,2.74c-2.24,0.24-3.37-0.29-3.95-2.05
		c-0.34-1.05-0.47-2.17-0.67-3.27c-0.83-4.64-3.89-5.8-7.5-5.76c-0.23,0-0.47,0.1-0.7,0.09c-2.86-0.1-4.14,1.46-4.39,4.36
		c-0.13,1.52-0.28,3.04-0.58,4.53c-0.32,1.61-1.34,2.35-2.84,2.32c-1.26-0.03-2.44-0.91-2.68-2.35c-0.3-1.84-0.58-3.73-0.46-5.57
		c0.23-3.45,0.75-6.87,1.16-10.31c0.03-0.29,0.11-0.59,0.23-0.85c2.01-4.22,2.47-8.75,2.9-13.33c0.37-3.9,1.12-7.77,1.74-11.64
		c0.34-2.08,0.74-4.16,1.19-6.22c0.17-0.79,0.5-1.55,0.84-2.28c0.35-0.74,0.98-1.17,1.83-1.16c1.99,0.01,3.99-0.1,5.96,0.1
		c2.12,0.22,2.8,1.09,3.18,3.14c0.26,1.44,0.66,2.85,0.93,4.28c0.41,2.19,0.84,4.38,1.13,6.58c0.66,5.06,1.16,10.14,1.89,15.18
		c0.29,1.95,1.13,3.82,1.55,5.76c0.43,2,0.68,4.04,0.97,6.06c0.32,2.26,0.58,4.53,0.87,6.79
		C491.01,585.32,490.96,585.33,490.9,585.33z M474.28,568.62c0.04,0,0.07,0.01,0.11,0.01c0,0.76-0.08,1.53,0.02,2.28
		c0.18,1.27,1.43,2.63,2.37,2.72c1.8,0.17,2.94-0.54,3.58-2.17c0.54-1.39,0.81-2.81,0.47-4.3c-0.09-0.4-0.1-0.81-0.11-1.22
		c-0.13-4.23-0.59-8.41-1.49-12.54c-0.11-0.51-0.18-1.07-0.43-1.51c-0.2-0.36-0.62-0.72-1-0.8c-0.21-0.04-0.55,0.48-0.8,0.77
		c-0.1,0.12-0.12,0.33-0.16,0.5c-0.47,1.99-1.08,3.97-1.38,5.99C474.96,561.75,474.66,565.19,474.28,568.62z"/>
	<path class="st0" d="M341.25,559.47c0-4.87-0.01-9.74,0.01-14.61c0.01-1.46,0.08-2.93,0.19-4.39c0.14-1.85,1.11-2.92,2.61-2.99
		c1.64-0.08,3.39,1.12,3.61,2.72c0.28,2.09,0.46,4.2,0.47,6.31c0.01,5.1-0.17,10.21-0.17,15.31c0,4.28,0.22,8.56,0.18,12.84
		c-0.02,2.81-0.26,5.62-0.53,8.42c-0.38,3.89-2.5,6.44-6.18,7.76c-2.18,0.78-4.4,1.62-6.67,0.77c-1.73-0.65-3.35-1.64-4.92-2.64
		c-3.71-2.37-4.68-6.2-4.85-10.2c-0.2-4.86-0.23-9.75,0.01-14.61c0.15-3.12,0.37-6.24-0.07-9.3c-0.45-3.17-0.27-6.32-0.25-9.48
		c0.01-1.45,0.18-2.96,0.62-4.33c0.81-2.54,2.25-3.55,4.37-3.69c1.23-0.08,1.76,0.19,2.16,1.34c0.32,0.93,0.57,1.93,0.58,2.9
		c0.13,9.03,0.21,18.07,0.29,27.1c0.03,3.16-0.05,6.33,0.02,9.49c0.03,1.46,0.26,2.91,1.29,4.11c1.69,1.97,4.52,1.85,5.98-0.26
		c0.97-1.4,1.45-2.92,1.45-4.62c-0.01-5.99,0-11.97,0-17.96C341.38,559.47,341.32,559.47,341.25,559.47z"/>
	<path class="st0" d="M353.91,573.43c-0.11-2.93-0.26-5.86-0.3-8.79c-0.02-1.7,0.22-3.4,0.2-5.09c-0.05-4.8-0.21-9.61-0.25-14.41
		c-0.01-1.46,0.1-2.93,0.36-4.37c0.38-2.1,1.13-2.85,3.25-3.08c2.38-0.26,4.79-0.39,7.19-0.37c2.98,0.03,5.97,0.27,8.95,0.42
		c1.31,0.07,2.36,0.63,3.19,1.62c0.49,0.58,0.74,1.26,0.42,1.96c-0.84,1.86-1.85,3.57-4.24,3.69c-1.99,0.1-3.98,0.2-5.96,0.38
		c-2.97,0.28-2.99,0.3-3.72,3.16c-0.7,2.71-0.47,5.48-0.27,8.22c0.1,1.32,1.1,2.47,2.9,2.44c2.22-0.04,4.44,0.22,6.67,0.35
		c0.78,0.05,1.29,0.44,1.62,1.15c1.15,2.47-0.05,4.67-2.75,4.9c-1.69,0.15-3.39,0.24-5.09,0.24c-2.34,0-3.57,0.72-3.52,3.56
		c0.06,3.44-0.56,6.89,0.11,10.34c0.34,1.74,0.99,2.61,2.82,2.74c2.22,0.16,4.44,0.25,6.67,0.27c3.12,0.03,4.81,1.77,4.59,4.84
		c-0.11,1.55-0.99,2.64-2.56,2.91c-1.21,0.21-2.45,0.35-3.67,0.35c-3.75,0.02-7.51-0.02-11.26-0.07c-0.76-0.01-1.53-0.09-2.27-0.26
		c-1.88-0.42-2.56-1.36-2.91-3.27c-0.52-2.85-0.32-5.72-0.32-8.58c0-1.76,0-3.52,0-5.28C353.83,573.44,353.87,573.44,353.91,573.43z
		"/>
	<path class="st0" d="M577.04,579.92c0.15-1.33,0.23-2.39,0.39-3.43c0.22-1.41,1.18-2.13,2.49-2.38c1.32-0.26,2.52,0.03,3.17,1.31
		c0.52,1.03,0.97,2.14,1.21,3.27c0.41,1.96,1.36,3.49,3.02,4.55c0.63,0.4,1.37,0.68,2.1,0.82c1.18,0.23,2.19-0.38,2.62-1.57
		c0.87-2.41,1.12-4.86,0.72-7.43c-0.49-3.12-2.09-5.56-4.24-7.68c-1.62-1.6-3.43-3.01-5.12-4.55c-1.68-1.55-3.19-3.25-4.38-5.22
		c-1.13-1.86-1.51-3.95-1.72-6.04c-0.17-1.74-0.15-3.52-0.1-5.27c0.08-2.86,1.92-4.68,3.97-6.33c0.5-0.4,1.03-0.78,1.54-1.17
		c3.4-2.58,6.98-3.2,11.04-1.47c2.45,1.05,4.06,2.88,5.68,4.79c0.11,0.13,0.21,0.3,0.24,0.46c0.5,2.46,1.64,4.78,1.46,7.38
		c-0.14,1.94-1.07,2.99-3,2.82c-1.31-0.11-2.69,0.04-3.88-0.87c-0.89-0.68-1.49-1.43-1.7-2.55c-0.22-1.15-0.44-2.32-0.86-3.4
		c-0.89-2.26-2.59-2.58-4.4-0.92c-1.92,1.76-2.54,4.45-1.6,6.9c0.52,1.36,0.98,2.75,1.6,4.07c1.1,2.35,3.12,3.93,4.98,5.62
		c2.05,1.86,3.83,3.93,5.57,6.08c1.56,1.94,2.59,4.03,3.15,6.38c0.29,1.24,0.56,2.57,0.4,3.8c-0.3,2.31-0.79,4.63-1.45,6.86
		c-0.61,2.05-2.34,3.35-3.96,4.58c-1.95,1.48-4.28,2.16-6.68,2.55c-1.83,0.29-3.49-0.3-5.03-1.23c-1.5-0.91-3-1.83-4.41-2.86
		c-1.04-0.76-1.94-1.74-2.16-3.09C577.42,583.03,577.23,581.34,577.04,579.92z"/>
	<path class="st0" d="M551.8,565.45c0-6.48,0.03-11.47-0.01-16.45c-0.02-1.98-0.29-3.96-0.26-5.94c0.02-1.45,0.28-2.9,1.1-4.19
		c0.45-0.7,0.97-1.18,1.79-1.24c2.04-0.14,4.08-0.31,6.12-0.36c2.29-0.05,4.57,0.02,6.86,0.04c0.7,0.01,1.41-0.04,2.11,0.05
		c1.81,0.23,2.85,1.05,3.09,2.83c0.15,1.11-0.02,2.36-0.43,3.4c-0.46,1.17-1.45,1.91-2.91,1.87c-1.93-0.06-3.87-0.06-5.8,0.03
		c-2.76,0.13-3.94,1.2-4.2,3.99c-0.2,2.21-0.17,4.45-0.19,6.68c-0.01,1.05,0.81,1.6,1.64,1.85c1.9,0.58,3.84,1.01,5.77,1.48
		c0.45,0.11,0.93,0.11,1.39,0.2c1.76,0.33,2.81,1.46,2.85,3.03c0.04,1.46-1.14,2.83-2.84,3.11c-1.27,0.21-2.57,0.24-3.85,0.34
		c-0.23,0.02-0.47-0.01-0.7,0c-2.65,0.1-3.82,1.06-3.97,3.7c-0.18,3.22-0.11,6.45-0.13,9.67c-0.01,1.29,0.7,2.17,1.91,2.41
		c1.6,0.32,3.23,0.48,4.86,0.59c0.99,0.07,1.99-0.13,2.98-0.14c1.75-0.02,2.73,0.68,3.23,2.38c0.31,1.07,0.54,2.16,0.72,3.26
		c0.17,1.04-0.17,1.72-1.17,2.1c-0.97,0.37-2.02,0.73-3.04,0.76c-4.22,0.1-8.44,0.08-12.66,0.08c-0.53,0-1.07,0.01-1.58-0.11
		c-1.25-0.3-2.34-0.78-2.46-2.33c-0.14-1.75-0.5-3.49-0.49-5.24C551.55,576.85,551.71,570.4,551.8,565.45z"/>
	<path class="st0" d="M531.92,568.92c0-5.16,0.02-10.32-0.01-15.48c-0.01-1.46-0.12-2.93-0.32-4.38c-0.29-2.16-1.27-3.15-3.39-3.67
		c-1.2-0.29-2.39-0.57-3.58-0.9c-1.49-0.41-2.25-1.31-2.35-2.69c-0.11-1.57,0.64-3.2,1.88-3.68c0.97-0.37,2.03-0.71,3.05-0.72
		c5.57-0.06,11.14-0.02,16.71,0c0.52,0,1.05,0.13,1.57,0.22c2.04,0.36,2.54,0.98,2.5,3.08c-0.05,2.36-1.18,3.67-3.51,4.09
		c-0.52,0.09-1.03,0.23-1.54,0.35c-2.6,0.6-3.07,1.07-3.41,3.73c-0.17,1.28-0.24,2.57-0.24,3.86c0.01,8.56,0.07,17.13,0.07,25.69
		c0,2.81-0.12,5.62-0.23,8.43c-0.03,0.81-0.2,1.63-0.39,2.42c-0.32,1.3-0.88,1.73-2.22,1.85c-2.44,0.22-4.28-1.34-4.43-3.92
		c-0.16-2.69-0.19-5.39-0.22-8.09c-0.03-3.4-0.01-6.8-0.01-10.2C531.85,568.92,531.88,568.92,531.92,568.92z"/>
	<path class="st0" d="M418.88,563.44c0.12,4.28,0.37,8.56,0.31,12.84c-0.05,4.03,0.47,8.09-0.49,12.09
		c-0.11,0.45-0.2,0.93-0.42,1.33c-0.34,0.64-0.81,1.12-1.66,1.06c-1.21-0.09-2.45,0-3.65-0.18c-1.59-0.24-2.42-1.34-2.65-2.88
		c-0.1-0.64-0.13-1.28-0.15-1.93c-0.1-5.04-0.25-10.08-0.27-15.12c-0.03-6.68,0.01-13.36,0.05-20.05c0.02-3.11,0.13-6.21,0.22-9.32
		c0.08-2.52,0.77-3.31,3.22-3.83c0.11-0.02,0.23-0.06,0.34-0.07c2.84-0.25,4.8-0.05,5.06,3.9c0.22,3.27,0.19,6.56,0.22,9.84
		c0.03,4.11,0.01,8.21,0.01,12.32C418.99,563.44,418.94,563.44,418.88,563.44z"/>
	<path class="st0" d="M495.82,97.02c-0.09,0.83-0.08,1.32-0.21,1.76c-0.25,0.85-0.81,1.38-1.76,1.46c-1.6,0.14-3.03-0.35-4.31-1.22
		c-1.03-0.7-1.06-1.92-1.06-3.03c-0.01-1.57,0.09-3.15,0.19-4.72c0.1-1.64,0.67-2.36,2.01-2.72c1.22-0.33,2.38,0.07,3.17,1.28
		c0.5,0.77,0.93,1.64,1.14,2.53C495.38,94.01,495.59,95.7,495.82,97.02z"/>
	<path class="st0" d="M363.21,37.19c-0.23,0.77-0.37,1.59-0.7,2.31c-0.78,1.69-1.56,3.39-2.51,4.99c-0.58,0.99-1.38,1.88-2.22,2.69
		c-0.83,0.79-1.72,0.68-2.42-0.22c-0.81-1.04-1.28-2.22-0.98-3.59c0.7-3.25,2.2-5.98,5.03-7.88c0.1-0.06,0.18-0.15,0.28-0.22
		c0.83-0.55,1.73-0.79,2.65-0.3C363.22,35.43,363.08,36.33,363.21,37.19z"/>
	<path class="st0" d="M525.64,100.07c0,0.47,0.06,0.94-0.01,1.4c-0.17,1.03-0.59,1.95-1.7,2.23c-1.22,0.31-2.48,0.42-3.39-0.72
		c-0.82-1.02-1.38-2.16-1.46-3.5c-0.09-1.4-0.31-2.8-0.26-4.2c0.03-0.96,0.27-1.98,0.7-2.83c0.8-1.56,2.62-1.69,3.78-0.34
		c0.41,0.48,0.78,1.06,0.95,1.66c0.6,2.06,1.11,4.15,1.65,6.23C525.81,100.03,525.73,100.05,525.64,100.07z"/>
	<path class="st0" d="M350.59,75.49c-0.04,0.2-0.08,0.56-0.2,0.88c-1.09,2.85-2.69,5.35-5.34,6.97c-0.87,0.53-1.96,0.77-2.98,0.94
		c-1.21,0.2-2.51-1.3-2.11-2.59c0.57-1.86,1.24-3.65,2.97-4.97c1.56-1.19,3.24-2.07,4.96-2.91
		C349.36,73.08,350.56,73.81,350.59,75.49z"/>
	<path class="st0" d="M459.49,32.8c0-1.94,0.34-2.49,1.45-2.96c0.99-0.42,1.83-0.22,2.68,0.7c0.32,0.34,0.62,0.73,0.8,1.15
		c0.9,2.16,1.83,4.31,2.6,6.52c0.65,1.86-0.38,3.41-2.3,3.76c-2.05,0.37-3.87-0.62-4.3-2.66C459.94,36.97,459.74,34.57,459.49,32.8z
		"/>
	<path class="st0" d="M423.84,27.79c-0.01,0.11,0.01,0.3-0.07,0.45c-0.83,1.53-1.63,3.1-2.55,4.57c-0.45,0.72-1.14,1.32-1.77,1.91
		c-0.42,0.39-0.9,0.77-1.42,0.98c-0.75,0.31-1.56,0.51-2.36,0.69c-1.04,0.23-2.02,0-2.72-0.81c-0.7-0.81-0.49-1.66-0.03-2.61
		c0.54-1.1,1.55-1.7,2.23-2.57c1.31-1.67,3.07-2.62,4.76-3.69c0.66-0.41,1.54-0.57,2.34-0.64C423.31,26,423.86,26.65,423.84,27.79z"
		/>
	<path class="st0" d="M446.2,101.65c-0.33-0.03-0.39-0.03-0.45-0.04c-1.07-0.15-2.18-0.36-2.58-1.51c-0.4-1.18-0.11-2.41,0.77-3.25
		c1.81-1.72,3.65-3.46,6.12-4.24c0.71-0.22,1.49-0.37,2.22-0.31c1.53,0.13,2.34,1.4,1.64,2.77c-0.74,1.43-1.63,2.87-2.78,3.98
		c-1.06,1.03-2.53,1.64-3.86,2.37C446.91,101.64,446.39,101.61,446.2,101.65z"/>
	<path class="st0" d="M319.73,67.52c-0.31,1.53-0.47,3.11-0.95,4.58c-0.57,1.75-3.53,2.83-5.17,1.99c-1.03-0.53-1.78-1.34-1.66-2.64
		c0.05-0.58,0.04-1.18,0.2-1.74c0.58-2.1,1.54-4.02,2.91-5.72c0.64-0.79,1.43-1.19,2.46-0.94c1.03,0.26,1.57,0.99,1.74,1.98
		c0.14,0.8,0.18,1.62,0.26,2.44C319.59,67.49,319.66,67.5,319.73,67.52z"/>
	<path class="st0" d="M411.05,66.04c-0.12,0.71-0.17,1.42-0.37,2.08c-0.44,1.49-1.76,2.01-3.2,1.34c-1.57-0.73-2.46-2.06-2.76-3.64
		c-0.35-1.87-0.38-3.79-0.54-5.7c-0.02-0.23,0-0.47,0.01-0.7c0.04-1.1,0.3-2.13,1.37-2.66c0.78-0.39,1.86,0.2,2.76,1.4
		C410.06,60.51,410.59,63.25,411.05,66.04z"/>
	<path class="st0" d="M470.79,59.66c0.4-2.04,0.73-3.75,2.28-4.91c0.97-0.73,1.87-1.55,2.82-2.32c0.22-0.18,0.48-0.35,0.75-0.45
		c1.11-0.42,2.29-0.42,3.16,0.37c0.83,0.76,0.79,1.86,0.4,2.94c-0.44,1.24-1.07,2.29-2.02,3.23c-1.42,1.39-2.67,2.95-4.49,3.88
		c-0.98,0.5-1.26,0.51-1.83-0.46C471.4,61.15,471.08,60.28,470.79,59.66z"/>
	<path class="st0" d="M345.08,114.51c0.28,2.08-2.04,3.99-4.04,2.63c-1.81-1.23-3.18-2.72-3.79-4.85c-0.31-1.06-0.61-2.14-1.02-3.16
		c-0.36-0.89-0.19-1.61,0.41-2.27c0.59-0.66,1.39-0.67,2.12-0.41c2.05,0.74,3.68,2.13,4.73,3.99
		C344.2,111.72,345.35,112.93,345.08,114.51z"/>
	<path class="st0" d="M521.92,57.74c-0.21,1.58-1.36,3.19-2.83,4.56c-1.12,1.04-2.45,1.79-3.94,2.24c-0.97,0.29-2.08,0.67-2.78-0.24
		c-0.67-0.86-0.94-1.99-0.51-3.16c0.57-1.54,1.63-2.71,2.84-3.71c0.89-0.74,1.95-1.31,3.01-1.77c0.72-0.31,1.58-0.43,2.37-0.41
		C521.55,55.29,521.89,55.73,521.92,57.74z"/>
	<path class="st0" d="M287.29,93.69c1.51,0.39,3.12,1.04,4.03,2.71c1.02,1.89,2.32,3.65,2.61,5.89c0.25,1.84-0.77,2.9-2.61,2.64
		c-2.36-0.33-3.73-1.63-4.32-3.95c-0.34-1.34-1.01-2.6-1.48-3.91c-0.19-0.54-0.36-1.12-0.36-1.68
		C285.16,94.15,285.82,93.6,287.29,93.69z"/>
	<path class="st0" d="M405.72,112.01c-2.3-0.04-3.3-1.76-4.3-3.41c-0.66-1.09-1.21-2.25-1.77-3.4c-0.23-0.47-0.44-0.96-0.56-1.47
		c-0.36-1.53,0.64-2.65,2.13-2.24c2.29,0.64,4.41,1.77,5.78,3.74c1.04,1.5,1.22,3.4,1.04,5.22
		C407.93,111.64,407.16,112.06,405.72,112.01z"/>
	<path class="st0" d="M526.98,133.35c-0.13,2.69-0.94,5.05-2.54,7.07c-1.13,1.43-1.91,1.43-3.24,0.26
		c-0.31-0.27-0.61-0.55-0.89-0.85c-1.21-1.27-1.05-3.07,0.53-3.78c1.26-0.56,1.64-1.45,1.65-2.62c0.02-1.46,0.94-2.22,2.05-2.83
		c1-0.55,1.88-0.16,2.18,0.94C526.88,132.17,526.91,132.82,526.98,133.35z"/>
	<path class="st0" d="M284.34,134.12c-0.09,1.84-2.32,4.7-4.09,5.25c-1.01,0.31-1.74-0.35-1.51-1.41c0.37-1.76,0.77-3.51,1.16-5.27
		c0.24-1.09,0.81-1.39,1.91-1.05c0.33,0.1,0.67,0.21,1,0.31C284.06,132.35,284.41,132.85,284.34,134.12z"/>
	<path class="st0" d="M536.01,132.91c3-2.13,7.05-0.94,8.78,1.42c0.79,1.07,0.64,1.81-0.63,2.24c-1.2,0.41-2.31,0.48-3.45-0.4
		c-1.23-0.95-2.64-1.66-3.95-2.5C536.49,133.5,536.3,133.21,536.01,132.91z"/>
	<path class="st0" d="M488.08,149.26c-0.03-1.46,0.85-2.41,2.23-2.5c1.14-0.07,2.64,0.99,2.6,2.13c-0.03,1.07-0.35,2.19-0.82,3.15
		c-0.43,0.9-1.68,1.02-2.42,0.33C488.76,151.52,488.07,150.5,488.08,149.26z"/>
	<path class="st0" d="M540.59,123.9c-0.43,0.13-0.84,0.3-1.28,0.39c-1.26,0.26-2.47,0.54-3.58,1.32c-1.2,0.85-2.43,0.1-2.57-1.4
		c-0.16-1.75,0.36-2.33,2.13-2.41c1.6-0.08,3.16-0.03,4.56,0.9c0.33,0.22,0.7,0.38,1.05,0.57
		C540.81,123.47,540.7,123.69,540.59,123.9z"/>
	<path class="st0" d="M517,133.17c-0.08,0.96-1.05,1.89-1.67,1.88c-0.56-0.01-1.11-0.58-1.08-1.14c0.03-0.64,1.02-1.51,1.75-1.38
		C516.4,132.59,516.75,133,517,133.17z"/>
	<path class="st0" d="M317.42,283.05c-2.59-0.06-4.35-1.74-4.23-4.04c0.08-1.5,1.07-2.65,2.53-2.93c1.48-0.28,2.5,0.29,3.13,1.86
		c0.35,0.86,0.7,1.75,0.82,2.66C319.9,282.38,319.18,283.09,317.42,283.05z"/>
	<path class="st0" d="M299.67,279.65c-0.11-0.68,0.15-1.2,0.77-1.59c1.18-0.76,2.45-1.13,3.83-0.83c1.59,0.34,2.33,1.59,1.95,3.16
		c-0.04,0.17-0.11,0.33-0.17,0.5c-0.67,1.85-1.97,2.96-3.19,2.74C301.27,283.32,299.71,281.4,299.67,279.65z"/>
	<path class="st0" d="M328.72,283.08c-1.28,0.01-2.53-1.06-2.56-2.17c-0.02-0.98,1.25-2.04,2.46-2.04c1.38,0,1.62,0.47,1.9,2.59
		C330.66,282.51,329.95,283.08,328.72,283.08z"/>
	<path class="st0" d="M368.12,201.31c-2.99,0-5.98,0.03-8.97-0.01c-1.82-0.03-3.28-0.67-4-2.56c-0.7-1.85,0.29-3.92,2.22-4.33
		c0.51-0.11,1.05-0.12,1.57-0.12c5.1,0.01,10.2,0,15.29,0.07c1.45,0.02,2.96,0.07,4.34,0.47c2.57,0.75,3.2,3.64,1.41,5.63
		c-0.71,0.79-1.64,0.89-2.57,0.9c-3.1,0.03-6.2,0.01-9.31,0.01C368.12,201.35,368.12,201.33,368.12,201.31z"/>
	<path class="st0" d="M463.16,197.65c-1.49-0.19-2.84-0.28-4.14-0.57c-1.24-0.28-1.78-1.3-1.66-2.7c0.12-1.42,0.82-2.3,2.01-2.5
		c2.76-0.47,5.51-0.89,8.33-0.37c1.6,0.3,2.59,1.51,2.17,3.08c-0.37,1.38-1.09,2.47-2.68,2.63
		C465.81,197.38,464.42,197.52,463.16,197.65z"/>
</g>
</svg>
